<svg width="16" height="16" viewBox="0 0 16 16" fill="none" xmlns="http://www.w3.org/2000/svg">
<path d="M8.61172 11.138C8.59631 11.1534 8.57972 11.1684 8.56288 11.1822C8.55516 11.1885 8.547 11.194 8.53906 11.2C8.52959 11.2071 8.52031 11.2144 8.51047 11.221C8.50097 11.2274 8.49113 11.2329 8.48138 11.2387C8.47244 11.244 8.46372 11.2496 8.45453 11.2545C8.44459 11.2599 8.43438 11.2644 8.42422 11.2691C8.41466 11.2737 8.40522 11.2784 8.39541 11.2825C8.38556 11.2866 8.3755 11.2899 8.3655 11.2934C8.35497 11.2972 8.34459 11.3013 8.33384 11.3045C8.32384 11.3075 8.31369 11.3098 8.30356 11.3123C8.29259 11.3151 8.28175 11.3181 8.27056 11.3204C8.25884 11.3227 8.24703 11.324 8.23525 11.3257C8.22553 11.3271 8.21594 11.329 8.20609 11.3299C8.16234 11.3343 8.11825 11.3343 8.0745 11.3299C8.06466 11.329 8.05506 11.3271 8.04534 11.3257C8.03356 11.324 8.02175 11.3227 8.01003 11.3204C7.99884 11.3181 7.988 11.3151 7.97703 11.3123C7.96694 11.3098 7.95675 11.3075 7.94675 11.3045C7.936 11.3013 7.92559 11.2972 7.91509 11.2934C7.90509 11.2899 7.89503 11.2866 7.88519 11.2825C7.87538 11.2784 7.86594 11.2737 7.85637 11.2691C7.84622 11.2644 7.836 11.2599 7.82606 11.2545C7.81688 11.2496 7.80816 11.244 7.79922 11.2387C7.78947 11.2329 7.77962 11.2274 7.77012 11.221C7.76028 11.2144 7.751 11.2071 7.74153 11.2C7.73359 11.1941 7.72544 11.1885 7.71772 11.1822C7.70087 11.1684 7.68466 11.1538 7.66925 11.1384L3.00222 6.47138C2.74187 6.21104 2.74187 5.78891 3.00222 5.52857C3.26256 5.26823 3.68469 5.26823 3.94503 5.52857L7.47366 9.05716L7.47366 9.86664C7.47366 9.49845 7.77213 9.19998 8.14031 9.19998C8.5085 9.19998 8.80697 9.49845 8.80697 9.86664V9.05716L12.3356 5.52857C12.5959 5.26823 13.018 5.26823 13.2784 5.52857C13.5387 5.78891 13.5387 6.21104 13.2784 6.47138L8.61172 11.138Z" fill="#4B4B4B" stroke="#4B4B4B" stroke-width="0.7"/>
</svg>
