<svg width="1264" height="17" viewBox="0 0 1264 17" fill="none" xmlns="http://www.w3.org/2000/svg">
<g opacity="0.1">
<path d="M8.46994 2.55994C8.80768 2.5573 9.13069 2.42128 9.36858 2.18152C9.60647 1.94177 9.73995 1.61771 9.73994 1.27997C9.74126 1.11235 9.70939 0.946137 9.64615 0.790901C9.58292 0.635665 9.48958 0.494482 9.37152 0.375493C9.25346 0.256505 9.11301 0.162064 8.95827 0.0976176C8.80353 0.0331713 8.63757 -5.19568e-06 8.46994 6.10309e-10C8.13046 6.10307e-10 7.80489 0.134853 7.56484 0.374893C7.3248 0.614934 7.18994 0.940499 7.18994 1.27997C7.18994 1.61944 7.3248 1.945 7.56484 2.18504C7.80489 2.42508 8.13046 2.55994 8.46994 2.55994V2.55994Z" fill="#3060D7"/>
<path d="M22.8801 2.55994C23.2178 2.5573 23.5408 2.42128 23.7787 2.18152C24.0166 1.94177 24.1501 1.61771 24.1501 1.27997C24.1514 1.11235 24.1195 0.946137 24.0563 0.790901C23.9931 0.635665 23.8997 0.494482 23.7817 0.375493C23.6636 0.256505 23.5232 0.162064 23.3684 0.0976176C23.2137 0.0331713 23.0477 -5.19568e-06 22.8801 6.10309e-10C22.5406 6.10309e-10 22.215 0.134853 21.975 0.374893C21.735 0.614934 21.6001 0.940499 21.6001 1.27997C21.6001 1.61944 21.735 1.945 21.975 2.18504C22.215 2.42508 22.5406 2.55994 22.8801 2.55994V2.55994Z" fill="#3060D7"/>
<path d="M37.28 2.55994C37.6177 2.5573 37.9407 2.42128 38.1786 2.18152C38.4165 1.94177 38.55 1.61771 38.55 1.27997C38.5513 1.11235 38.5194 0.946137 38.4562 0.790901C38.393 0.635665 38.2996 0.494482 38.1816 0.375493C38.0635 0.256505 37.9231 0.162064 37.7683 0.0976176C37.6136 0.0331713 37.4476 -5.19568e-06 37.28 6.10309e-10C36.9405 6.10309e-10 36.6149 0.134853 36.3749 0.374893C36.1349 0.614934 36 0.940499 36 1.27997C36 1.61944 36.1349 1.945 36.3749 2.18504C36.6149 2.42508 36.9405 2.55994 37.28 2.55994V2.55994Z" fill="#3060D7"/>
<path d="M51.6799 2.55994C52.3868 2.55994 52.9599 1.98688 52.9599 1.27997C52.9599 0.573061 52.3868 0 51.6799 0C50.973 0 50.3999 0.573061 50.3999 1.27997C50.3999 1.98688 50.973 2.55994 51.6799 2.55994Z" fill="#3060D7"/>
<path d="M66.0798 2.55994C66.4175 2.5573 66.7406 2.42128 66.9784 2.18152C67.2163 1.94177 67.3498 1.61771 67.3498 1.27997C67.3511 1.11235 67.3192 0.946137 67.256 0.790901C67.1928 0.635665 67.0994 0.494482 66.9814 0.375493C66.8633 0.256505 66.7229 0.162064 66.5681 0.0976176C66.4134 0.0331713 66.2474 -5.19568e-06 66.0798 6.10309e-10C65.7403 6.10307e-10 65.4148 0.134853 65.1747 0.374893C64.9347 0.614934 64.7998 0.940499 64.7998 1.27997C64.7998 1.61944 64.9347 1.945 65.1747 2.18504C65.4148 2.42508 65.7403 2.55994 66.0798 2.55994V2.55994Z" fill="#3060D7"/>
<path d="M80.4699 2.55994C80.8077 2.5573 81.1307 2.42128 81.3686 2.18152C81.6065 1.94177 81.74 1.61771 81.7399 1.27997C81.7413 1.11235 81.7094 0.946137 81.6462 0.790901C81.5829 0.635665 81.4896 0.494482 81.3715 0.375493C81.2535 0.256505 81.113 0.162064 80.9583 0.0976176C80.8035 0.0331713 80.6376 -5.19568e-06 80.4699 6.10309e-10C80.1305 6.10307e-10 79.8049 0.134853 79.5648 0.374893C79.3248 0.614934 79.1899 0.940499 79.1899 1.27997C79.1899 1.61944 79.3248 1.945 79.5648 2.18504C79.8049 2.42508 80.1305 2.55994 80.4699 2.55994V2.55994Z" fill="#3060D7"/>
<path d="M94.8801 2.55994C95.2178 2.5573 95.5409 2.42128 95.7787 2.18152C96.0166 1.94177 96.1501 1.61771 96.1501 1.27997C96.1514 1.11235 96.1195 0.946137 96.0563 0.790901C95.9931 0.635665 95.8997 0.494482 95.7817 0.375493C95.6636 0.256505 95.5232 0.162064 95.3684 0.0976176C95.2137 0.0331713 95.0477 -5.19568e-06 94.8801 6.10309e-10C94.5406 6.10307e-10 94.2151 0.134853 93.975 0.374893C93.735 0.614934 93.6001 0.940499 93.6001 1.27997C93.6001 1.61944 93.735 1.945 93.975 2.18504C94.2151 2.42508 94.5406 2.55994 94.8801 2.55994V2.55994Z" fill="#3060D7"/>
<path d="M109.28 2.55994C109.618 2.5573 109.941 2.42128 110.179 2.18152C110.417 1.94177 110.55 1.61771 110.55 1.27997C110.551 1.11235 110.519 0.946137 110.456 0.790901C110.393 0.635665 110.3 0.494482 110.182 0.375493C110.064 0.256505 109.923 0.162064 109.768 0.0976176C109.614 0.0331713 109.448 -5.19568e-06 109.28 6.10309e-10C108.941 6.10307e-10 108.615 0.134853 108.375 0.374893C108.135 0.614934 108 0.940499 108 1.27997C108 1.61944 108.135 1.945 108.375 2.18504C108.615 2.42508 108.941 2.55994 109.28 2.55994V2.55994Z" fill="#3060D7"/>
<path d="M123.68 2.55994C124.387 2.55994 124.96 1.98688 124.96 1.27997C124.96 0.573061 124.387 0 123.68 0C122.973 0 122.4 0.573061 122.4 1.27997C122.4 1.98688 122.973 2.55994 123.68 2.55994Z" fill="#3060D7"/>
<path d="M138.08 2.55994C138.418 2.5573 138.741 2.42128 138.978 2.18152C139.216 1.94177 139.35 1.61771 139.35 1.27997C139.351 1.11235 139.319 0.946137 139.256 0.790901C139.193 0.635665 139.099 0.494482 138.981 0.375493C138.863 0.256505 138.723 0.162064 138.568 0.0976176C138.413 0.0331713 138.247 -5.19568e-06 138.08 6.10309e-10C137.74 6.10307e-10 137.415 0.134853 137.175 0.374893C136.935 0.614934 136.8 0.940499 136.8 1.27997C136.8 1.61944 136.935 1.945 137.175 2.18504C137.415 2.42508 137.74 2.55994 138.08 2.55994V2.55994Z" fill="#3060D7"/>
<path d="M152.47 2.55994C152.808 2.5573 153.131 2.42128 153.369 2.18152C153.606 1.94177 153.74 1.61771 153.74 1.27997C153.741 1.11235 153.709 0.946137 153.646 0.790901C153.583 0.635665 153.49 0.494482 153.372 0.375493C153.253 0.256505 153.113 0.162064 152.958 0.0976176C152.804 0.0331713 152.638 -5.19568e-06 152.47 6.10309e-10C152.13 6.10307e-10 151.805 0.134853 151.565 0.374893C151.325 0.614934 151.19 0.940499 151.19 1.27997C151.19 1.61944 151.325 1.945 151.565 2.18504C151.805 2.42508 152.13 2.55994 152.47 2.55994V2.55994Z" fill="#3060D7"/>
<path d="M166.88 2.55994C167.218 2.5573 167.541 2.42128 167.779 2.18152C168.017 1.94177 168.15 1.61771 168.15 1.27997C168.151 1.11235 168.12 0.946137 168.056 0.790901C167.993 0.635665 167.9 0.494482 167.782 0.375493C167.664 0.256505 167.523 0.162064 167.368 0.0976176C167.214 0.0331713 167.048 -5.19568e-06 166.88 6.10309e-10C166.541 6.10307e-10 166.215 0.134853 165.975 0.374893C165.735 0.614934 165.6 0.940499 165.6 1.27997C165.6 1.61944 165.735 1.945 165.975 2.18504C166.215 2.42508 166.541 2.55994 166.88 2.55994V2.55994Z" fill="#3060D7"/>
<path d="M181.28 2.55994C181.618 2.5573 181.941 2.42128 182.179 2.18152C182.417 1.94177 182.55 1.61771 182.55 1.27997C182.551 1.11235 182.519 0.946137 182.456 0.790901C182.393 0.635665 182.3 0.494482 182.182 0.375493C182.064 0.256505 181.923 0.162064 181.768 0.0976176C181.614 0.0331713 181.448 -5.19568e-06 181.28 6.10309e-10C180.941 6.10307e-10 180.615 0.134853 180.375 0.374893C180.135 0.614934 180 0.940499 180 1.27997C180 1.61944 180.135 1.945 180.375 2.18504C180.615 2.42508 180.941 2.55994 181.28 2.55994V2.55994Z" fill="#3060D7"/>
<path d="M195.68 2.55994C196.387 2.55994 196.96 1.98688 196.96 1.27997C196.96 0.573061 196.387 0 195.68 0C194.973 0 194.4 0.573061 194.4 1.27997C194.4 1.98688 194.973 2.55994 195.68 2.55994Z" fill="#3060D7"/>
<path d="M210.08 2.55994C210.418 2.5573 210.741 2.42128 210.978 2.18152C211.216 1.94177 211.35 1.61771 211.35 1.27997C211.351 1.11235 211.319 0.946137 211.256 0.790901C211.193 0.635665 211.099 0.494482 210.981 0.375493C210.863 0.256505 210.723 0.162064 210.568 0.0976176C210.413 0.0331713 210.247 -5.19568e-06 210.08 6.10309e-10C209.74 6.10307e-10 209.415 0.134853 209.175 0.374893C208.935 0.614934 208.8 0.940499 208.8 1.27997C208.8 1.61944 208.935 1.945 209.175 2.18504C209.415 2.42508 209.74 2.55994 210.08 2.55994V2.55994Z" fill="#3060D7"/>
<path d="M224.47 2.55994C224.808 2.5573 225.131 2.42128 225.369 2.18152C225.606 1.94177 225.74 1.61771 225.74 1.27997C225.741 1.11235 225.709 0.946137 225.646 0.790901C225.583 0.635665 225.49 0.494482 225.372 0.375493C225.253 0.256505 225.113 0.162064 224.958 0.0976176C224.804 0.0331713 224.638 -5.19568e-06 224.47 6.10309e-10C224.13 6.10307e-10 223.805 0.134853 223.565 0.374893C223.325 0.614934 223.19 0.940499 223.19 1.27997C223.19 1.61944 223.325 1.945 223.565 2.18504C223.805 2.42508 224.13 2.55994 224.47 2.55994V2.55994Z" fill="#3060D7"/>
<path d="M238.88 2.55994C239.218 2.5573 239.541 2.42128 239.779 2.18152C240.017 1.94177 240.15 1.61771 240.15 1.27997C240.151 1.11235 240.12 0.946137 240.056 0.790901C239.993 0.635665 239.9 0.494482 239.782 0.375493C239.664 0.256505 239.523 0.162064 239.368 0.0976176C239.214 0.0331713 239.048 -5.19568e-06 238.88 6.10309e-10C238.541 6.10307e-10 238.215 0.134853 237.975 0.374893C237.735 0.614934 237.6 0.940499 237.6 1.27997C237.6 1.61944 237.735 1.945 237.975 2.18504C238.215 2.42508 238.541 2.55994 238.88 2.55994V2.55994Z" fill="#3060D7"/>
<path d="M253.28 2.55994C253.618 2.5573 253.941 2.42128 254.179 2.18152C254.417 1.94177 254.55 1.61771 254.55 1.27997C254.551 1.11235 254.519 0.946137 254.456 0.790901C254.393 0.635665 254.3 0.494482 254.182 0.375493C254.064 0.256505 253.923 0.162064 253.768 0.0976176C253.614 0.0331713 253.448 -5.19568e-06 253.28 6.10309e-10C252.941 6.10307e-10 252.615 0.134853 252.375 0.374893C252.135 0.614934 252 0.940499 252 1.27997C252 1.61944 252.135 1.945 252.375 2.18504C252.615 2.42508 252.941 2.55994 253.28 2.55994V2.55994Z" fill="#3060D7"/>
<path d="M267.68 2.55994C268.387 2.55994 268.96 1.98688 268.96 1.27997C268.96 0.573061 268.387 0 267.68 0C266.973 0 266.4 0.573061 266.4 1.27997C266.4 1.98688 266.973 2.55994 267.68 2.55994Z" fill="#3060D7"/>
<path d="M282.08 2.55994C282.418 2.5573 282.741 2.42128 282.978 2.18152C283.216 1.94177 283.35 1.61771 283.35 1.27997C283.351 1.11235 283.319 0.946137 283.256 0.790901C283.193 0.635665 283.099 0.494482 282.981 0.375493C282.863 0.256505 282.723 0.162064 282.568 0.0976176C282.413 0.0331713 282.247 -5.19568e-06 282.08 6.10309e-10C281.74 6.10307e-10 281.415 0.134853 281.175 0.374893C280.935 0.614934 280.8 0.940499 280.8 1.27997C280.8 1.61944 280.935 1.945 281.175 2.18504C281.415 2.42508 281.74 2.55994 282.08 2.55994V2.55994Z" fill="#3060D7"/>
<path d="M296.47 2.55994C296.808 2.5573 297.131 2.42128 297.369 2.18152C297.606 1.94177 297.74 1.61771 297.74 1.27997C297.741 1.11235 297.709 0.946137 297.646 0.790901C297.583 0.635665 297.49 0.494482 297.372 0.375493C297.253 0.256505 297.113 0.162064 296.958 0.0976176C296.804 0.0331713 296.638 -5.19568e-06 296.47 6.10309e-10C296.13 6.10307e-10 295.805 0.134853 295.565 0.374893C295.325 0.614934 295.19 0.940499 295.19 1.27997C295.19 1.61944 295.325 1.945 295.565 2.18504C295.805 2.42508 296.13 2.55994 296.47 2.55994V2.55994Z" fill="#3060D7"/>
<path d="M310.88 2.55994C311.218 2.5573 311.541 2.42128 311.779 2.18152C312.017 1.94177 312.15 1.61771 312.15 1.27997C312.151 1.11235 312.12 0.946137 312.056 0.790901C311.993 0.635665 311.9 0.494482 311.782 0.375493C311.664 0.256505 311.523 0.162064 311.368 0.0976176C311.214 0.0331713 311.048 -5.19568e-06 310.88 6.10309e-10C310.541 6.10307e-10 310.215 0.134853 309.975 0.374893C309.735 0.614934 309.6 0.940499 309.6 1.27997C309.6 1.61944 309.735 1.945 309.975 2.18504C310.215 2.42508 310.541 2.55994 310.88 2.55994V2.55994Z" fill="#3060D7"/>
<path d="M1.28 16.9602C1.61602 16.9576 1.93753 16.8229 2.17514 16.5853C2.41274 16.3477 2.54739 16.0262 2.55 15.6902C2.55132 15.5226 2.51945 15.3563 2.45621 15.2011C2.39298 15.0458 2.29964 14.9047 2.18158 14.7857C2.06352 14.6667 1.92307 14.5722 1.76833 14.5078C1.61359 14.4433 1.44762 14.4102 1.28 14.4102C0.940523 14.4102 0.61495 14.545 0.374903 14.7851C0.134856 15.0251 0 15.3507 0 15.6902C0.00263869 16.0279 0.138659 16.3509 0.37842 16.5888C0.618182 16.8267 0.942248 16.9602 1.28 16.9602Z" fill="#3060D7"/>
<path d="M15.6799 16.96C16.3868 16.96 16.9599 16.3869 16.9599 15.68C16.9599 14.973 16.3868 14.3999 15.6799 14.3999C14.973 14.3999 14.3999 14.973 14.3999 15.68C14.3999 16.3869 14.973 16.96 15.6799 16.96Z" fill="#3060D7"/>
<path d="M30.0798 16.9602C30.4158 16.9576 30.7373 16.8229 30.9749 16.5853C31.2125 16.3477 31.3472 16.0262 31.3498 15.6902C31.3511 15.5226 31.3192 15.3563 31.256 15.2011C31.1928 15.0458 31.0994 14.9047 30.9814 14.7857C30.8633 14.6667 30.7229 14.5722 30.5681 14.5078C30.4134 14.4433 30.2474 14.4102 30.0798 14.4102C29.9117 14.4102 29.7453 14.4433 29.59 14.5076C29.4347 14.5719 29.2936 14.6662 29.1747 14.7851C29.0558 14.9039 28.9616 15.045 28.8972 15.2003C28.8329 15.3556 28.7998 15.5221 28.7998 15.6902C28.8024 16.0279 28.9385 16.3509 29.1782 16.5888C29.418 16.8267 29.7421 16.9602 30.0798 16.9602Z" fill="#3060D7"/>
<path d="M44.4702 16.96C44.808 16.96 45.1321 16.8265 45.3718 16.5886C45.6116 16.3507 45.7476 16.0277 45.7502 15.69C45.7529 15.5207 45.7217 15.3525 45.6584 15.1955C45.5952 15.0384 45.5012 14.8956 45.3819 14.7754C45.2626 14.6552 45.1206 14.5601 44.964 14.4956C44.8074 14.4311 44.6395 14.3986 44.4702 14.3999C44.3021 14.4013 44.136 14.4357 43.9812 14.5012C43.8264 14.5667 43.686 14.6621 43.5681 14.7819C43.4501 14.9017 43.3569 15.0435 43.2938 15.1993C43.2307 15.3551 43.1989 15.5219 43.2002 15.69C43.2028 16.026 43.3375 16.3475 43.5751 16.5851C43.8127 16.8227 44.1342 16.9573 44.4702 16.96V16.96Z" fill="#3060D7"/>
<path d="M58.8801 16.9602C59.2161 16.9576 59.5376 16.8229 59.7752 16.5853C60.0128 16.3477 60.1475 16.0262 60.1501 15.6902C60.1514 15.5226 60.1195 15.3563 60.0563 15.2011C59.9931 15.0458 59.8997 14.9047 59.7817 14.7857C59.6636 14.6667 59.5232 14.5722 59.3684 14.5078C59.2137 14.4433 59.0477 14.4102 58.8801 14.4102C58.5406 14.4102 58.215 14.545 57.975 14.7851C57.735 15.0251 57.6001 15.3507 57.6001 15.6902C57.6027 16.0279 57.7388 16.3509 57.9785 16.5888C58.2183 16.8267 58.5423 16.9602 58.8801 16.9602V16.9602Z" fill="#3060D7"/>
<path d="M73.28 16.9602C73.616 16.9576 73.9375 16.8229 74.1751 16.5853C74.4127 16.3477 74.5474 16.0262 74.55 15.6902C74.5513 15.5226 74.5194 15.3563 74.4562 15.2011C74.393 15.0458 74.2996 14.9047 74.1816 14.7857C74.0635 14.6667 73.9231 14.5722 73.7683 14.5078C73.6136 14.4433 73.4476 14.4102 73.28 14.4102C72.9405 14.4102 72.615 14.545 72.3749 14.7851C72.1349 15.0251 72 15.3507 72 15.6902C72.0026 16.0279 72.1387 16.3509 72.3784 16.5888C72.6182 16.8267 72.9423 16.9602 73.28 16.9602V16.9602Z" fill="#3060D7"/>
<path d="M87.6799 16.96C88.3868 16.96 88.9599 16.3869 88.9599 15.68C88.9599 14.973 88.3868 14.3999 87.6799 14.3999C86.973 14.3999 86.3999 14.973 86.3999 15.68C86.3999 16.3869 86.973 16.96 87.6799 16.96Z" fill="#3060D7"/>
<path d="M102.08 16.9602C102.416 16.9576 102.737 16.8229 102.975 16.5853C103.213 16.3477 103.347 16.0262 103.35 15.6902C103.351 15.5226 103.319 15.3563 103.256 15.2011C103.193 15.0458 103.099 14.9047 102.981 14.7857C102.863 14.6667 102.723 14.5722 102.568 14.5078C102.413 14.4433 102.247 14.4102 102.08 14.4102C101.74 14.4102 101.415 14.545 101.175 14.7851C100.935 15.0251 100.8 15.3507 100.8 15.6902C100.802 16.0279 100.938 16.3509 101.178 16.5888C101.418 16.8267 101.742 16.9602 102.08 16.9602Z" fill="#3060D7"/>
<path d="M116.47 16.96C116.808 16.96 117.132 16.8265 117.372 16.5886C117.612 16.3507 117.748 16.0277 117.75 15.69C117.753 15.5207 117.722 15.3525 117.658 15.1955C117.595 15.0384 117.501 14.8956 117.382 14.7754C117.263 14.6552 117.121 14.5601 116.964 14.4956C116.807 14.4311 116.64 14.3986 116.47 14.3999C116.302 14.4013 116.136 14.4357 115.981 14.5012C115.826 14.5667 115.686 14.6621 115.568 14.7819C115.45 14.9017 115.357 15.0435 115.294 15.1993C115.231 15.3551 115.199 15.5219 115.2 15.69C115.203 16.026 115.337 16.3475 115.575 16.5851C115.813 16.8227 116.134 16.9573 116.47 16.96V16.96Z" fill="#3060D7"/>
<path d="M130.88 16.9602C131.216 16.9576 131.538 16.8229 131.775 16.5853C132.013 16.3477 132.147 16.0262 132.15 15.6902C132.151 15.5226 132.12 15.3563 132.056 15.2011C131.993 15.0458 131.9 14.9047 131.782 14.7857C131.664 14.6667 131.523 14.5722 131.368 14.5078C131.214 14.4433 131.048 14.4102 130.88 14.4102C130.712 14.4102 130.546 14.4433 130.39 14.5076C130.235 14.5719 130.094 14.6662 129.975 14.7851C129.856 14.9039 129.762 15.045 129.698 15.2003C129.633 15.3556 129.6 15.5221 129.6 15.6902C129.603 16.0279 129.739 16.3509 129.979 16.5888C130.218 16.8267 130.542 16.9602 130.88 16.9602Z" fill="#3060D7"/>
<path d="M145.28 16.9602C145.616 16.9576 145.938 16.8229 146.175 16.5853C146.413 16.3477 146.547 16.0262 146.55 15.6902C146.551 15.5226 146.519 15.3563 146.456 15.2011C146.393 15.0458 146.3 14.9047 146.182 14.7857C146.064 14.6667 145.923 14.5722 145.768 14.5078C145.614 14.4433 145.448 14.4102 145.28 14.4102C145.112 14.4102 144.945 14.4433 144.79 14.5076C144.635 14.5719 144.494 14.6662 144.375 14.7851C144.256 14.9039 144.162 15.045 144.097 15.2003C144.033 15.3556 144 15.5221 144 15.6902C144.003 16.0279 144.139 16.3509 144.378 16.5888C144.618 16.8267 144.942 16.9602 145.28 16.9602Z" fill="#3060D7"/>
<path d="M159.68 16.96C160.387 16.96 160.96 16.3869 160.96 15.68C160.96 14.973 160.387 14.3999 159.68 14.3999C158.973 14.3999 158.4 14.973 158.4 15.68C158.4 16.3869 158.973 16.96 159.68 16.96Z" fill="#3060D7"/>
<path d="M174.08 16.9602C174.416 16.9576 174.737 16.8229 174.975 16.5853C175.213 16.3477 175.347 16.0262 175.35 15.6902C175.351 15.5226 175.319 15.3563 175.256 15.2011C175.193 15.0458 175.099 14.9047 174.981 14.7857C174.863 14.6667 174.723 14.5722 174.568 14.5078C174.413 14.4433 174.247 14.4102 174.08 14.4102C173.74 14.4102 173.415 14.545 173.175 14.7851C172.935 15.0251 172.8 15.3507 172.8 15.6902C172.802 16.0279 172.938 16.3509 173.178 16.5888C173.418 16.8267 173.742 16.9602 174.08 16.9602Z" fill="#3060D7"/>
<path d="M188.47 16.96C188.808 16.96 189.132 16.8265 189.371 16.5886C189.611 16.3507 189.747 16.0277 189.75 15.69C189.752 15.5207 189.721 15.3525 189.658 15.1955C189.595 15.0384 189.501 14.8956 189.381 14.7754C189.262 14.6552 189.12 14.5601 188.964 14.4956C188.807 14.4311 188.639 14.3986 188.47 14.3999C188.302 14.4013 188.135 14.4357 187.981 14.5012C187.826 14.5667 187.686 14.6621 187.568 14.7819C187.45 14.9017 187.356 15.0435 187.293 15.1993C187.23 15.3551 187.198 15.5219 187.2 15.69C187.202 16.026 187.337 16.3475 187.575 16.5851C187.812 16.8227 188.134 16.9573 188.47 16.96V16.96Z" fill="#3060D7"/>
<path d="M202.88 16.9602C203.216 16.9576 203.538 16.8229 203.775 16.5853C204.013 16.3477 204.148 16.0262 204.15 15.6902C204.151 15.5226 204.12 15.3563 204.056 15.2011C203.993 15.0458 203.9 14.9047 203.782 14.7857C203.664 14.6667 203.523 14.5722 203.368 14.5078C203.214 14.4433 203.048 14.4102 202.88 14.4102C202.541 14.4102 202.215 14.545 201.975 14.7851C201.735 15.0251 201.6 15.3507 201.6 15.6902C201.603 16.0279 201.739 16.3509 201.979 16.5888C202.218 16.8267 202.542 16.9602 202.88 16.9602V16.9602Z" fill="#3060D7"/>
<path d="M217.28 16.9602C217.616 16.9576 217.938 16.8229 218.175 16.5853C218.413 16.3477 218.547 16.0262 218.55 15.6902C218.551 15.5226 218.519 15.3563 218.456 15.2011C218.393 15.0458 218.3 14.9047 218.182 14.7857C218.064 14.6667 217.923 14.5722 217.768 14.5078C217.614 14.4433 217.448 14.4102 217.28 14.4102C216.941 14.4102 216.615 14.545 216.375 14.7851C216.135 15.0251 216 15.3507 216 15.6902C216.003 16.0279 216.139 16.3509 216.378 16.5888C216.618 16.8267 216.942 16.9602 217.28 16.9602V16.9602Z" fill="#3060D7"/>
<path d="M231.68 16.96C232.387 16.96 232.96 16.3869 232.96 15.68C232.96 14.973 232.387 14.3999 231.68 14.3999C230.973 14.3999 230.4 14.973 230.4 15.68C230.4 16.3869 230.973 16.96 231.68 16.96Z" fill="#3060D7"/>
<path d="M246.08 16.9602C246.416 16.9576 246.737 16.8229 246.975 16.5853C247.213 16.3477 247.347 16.0262 247.35 15.6902C247.351 15.5226 247.319 15.3563 247.256 15.2011C247.193 15.0458 247.099 14.9047 246.981 14.7857C246.863 14.6667 246.723 14.5722 246.568 14.5078C246.413 14.4433 246.247 14.4102 246.08 14.4102C245.74 14.4102 245.415 14.545 245.175 14.7851C244.935 15.0251 244.8 15.3507 244.8 15.6902C244.802 16.0279 244.938 16.3509 245.178 16.5888C245.418 16.8267 245.742 16.9602 246.08 16.9602Z" fill="#3060D7"/>
<path d="M260.47 16.96C260.808 16.96 261.132 16.8265 261.372 16.5886C261.612 16.3507 261.748 16.0277 261.75 15.69C261.753 15.5207 261.722 15.3525 261.658 15.1955C261.595 15.0384 261.501 14.8956 261.382 14.7754C261.263 14.6552 261.121 14.5601 260.964 14.4956C260.807 14.4311 260.64 14.3986 260.47 14.3999C260.302 14.4013 260.136 14.4357 259.981 14.5012C259.826 14.5667 259.686 14.6621 259.568 14.7819C259.45 14.9017 259.357 15.0435 259.294 15.1993C259.231 15.3551 259.199 15.5219 259.2 15.69C259.203 16.026 259.337 16.3475 259.575 16.5851C259.813 16.8227 260.134 16.9573 260.47 16.96V16.96Z" fill="#3060D7"/>
<path d="M274.88 16.9602C275.216 16.9576 275.538 16.8229 275.775 16.5853C276.013 16.3477 276.148 16.0262 276.15 15.6902C276.151 15.5226 276.12 15.3563 276.056 15.2011C275.993 15.0458 275.9 14.9047 275.782 14.7857C275.664 14.6667 275.523 14.5722 275.368 14.5078C275.214 14.4433 275.048 14.4102 274.88 14.4102C274.712 14.4102 274.546 14.4433 274.39 14.5076C274.235 14.5719 274.094 14.6662 273.975 14.7851C273.856 14.9039 273.762 15.045 273.698 15.2003C273.633 15.3556 273.6 15.5221 273.6 15.6902C273.603 16.0279 273.739 16.3509 273.979 16.5888C274.218 16.8267 274.542 16.9602 274.88 16.9602Z" fill="#3060D7"/>
<path d="M289.28 16.9602C289.616 16.9576 289.938 16.8229 290.175 16.5853C290.413 16.3477 290.547 16.0262 290.55 15.6902C290.551 15.5226 290.519 15.3563 290.456 15.2011C290.393 15.0458 290.3 14.9047 290.182 14.7857C290.064 14.6667 289.923 14.5722 289.768 14.5078C289.614 14.4433 289.448 14.4102 289.28 14.4102C288.941 14.4102 288.615 14.545 288.375 14.7851C288.135 15.0251 288 15.3507 288 15.6902C288.003 16.0279 288.139 16.3509 288.378 16.5888C288.618 16.8267 288.942 16.9602 289.28 16.9602Z" fill="#3060D7"/>
<path d="M303.68 16.96C304.387 16.96 304.96 16.3869 304.96 15.68C304.96 14.973 304.387 14.3999 303.68 14.3999C302.973 14.3999 302.4 14.973 302.4 15.68C302.4 16.3869 302.973 16.96 303.68 16.96Z" fill="#3060D7"/>
<path d="M642.47 2.55994C642.808 2.5573 643.131 2.42128 643.369 2.18152C643.607 1.94177 643.74 1.61771 643.74 1.27997C643.741 1.11235 643.709 0.946137 643.646 0.790901C643.583 0.635665 643.49 0.494482 643.372 0.375493C643.254 0.256505 643.113 0.162064 642.958 0.0976176C642.804 0.0331713 642.638 -5.19568e-06 642.47 6.10309e-10C642.13 6.10307e-10 641.805 0.134853 641.565 0.374893C641.325 0.614934 641.19 0.940499 641.19 1.27997C641.19 1.61944 641.325 1.945 641.565 2.18504C641.805 2.42508 642.13 2.55994 642.47 2.55994V2.55994Z" fill="#3060D7"/>
<path d="M656.88 2.55994C657.218 2.5573 657.541 2.42128 657.779 2.18152C658.017 1.94177 658.15 1.61771 658.15 1.27997C658.151 1.11235 658.12 0.946137 658.056 0.790901C657.993 0.635665 657.9 0.494482 657.782 0.375493C657.664 0.256505 657.523 0.162064 657.368 0.0976176C657.214 0.0331713 657.048 -5.19568e-06 656.88 6.10309e-10C656.541 6.10309e-10 656.215 0.134853 655.975 0.374893C655.735 0.614934 655.6 0.940499 655.6 1.27997C655.6 1.61944 655.735 1.945 655.975 2.18504C656.215 2.42508 656.541 2.55994 656.88 2.55994V2.55994Z" fill="#3060D7"/>
<path d="M671.28 2.55994C671.618 2.5573 671.941 2.42128 672.179 2.18152C672.417 1.94177 672.55 1.61771 672.55 1.27997C672.551 1.11235 672.52 0.946137 672.456 0.790901C672.393 0.635665 672.3 0.494482 672.182 0.375493C672.064 0.256505 671.923 0.162064 671.768 0.0976176C671.614 0.0331713 671.448 -5.19568e-06 671.28 6.10309e-10C670.941 6.10309e-10 670.615 0.134853 670.375 0.374893C670.135 0.614934 670 0.940499 670 1.27997C670 1.61944 670.135 1.945 670.375 2.18504C670.615 2.42508 670.941 2.55994 671.28 2.55994V2.55994Z" fill="#3060D7"/>
<path d="M685.68 2.55994C686.387 2.55994 686.96 1.98688 686.96 1.27997C686.96 0.573061 686.387 0 685.68 0C684.973 0 684.4 0.573061 684.4 1.27997C684.4 1.98688 684.973 2.55994 685.68 2.55994Z" fill="#3060D7"/>
<path d="M700.08 2.55994C700.418 2.5573 700.741 2.42128 700.979 2.18152C701.216 1.94177 701.35 1.61771 701.35 1.27997C701.351 1.11235 701.319 0.946137 701.256 0.790901C701.193 0.635665 701.1 0.494482 700.981 0.375493C700.863 0.256505 700.723 0.162064 700.568 0.0976176C700.413 0.0331713 700.247 -5.19568e-06 700.08 6.10309e-10C699.74 6.10307e-10 699.415 0.134853 699.175 0.374893C698.935 0.614934 698.8 0.940499 698.8 1.27997C698.8 1.61944 698.935 1.945 699.175 2.18504C699.415 2.42508 699.74 2.55994 700.08 2.55994V2.55994Z" fill="#3060D7"/>
<path d="M714.47 2.55994C714.808 2.5573 715.131 2.42128 715.369 2.18152C715.607 1.94177 715.74 1.61771 715.74 1.27997C715.741 1.11235 715.709 0.946137 715.646 0.790901C715.583 0.635665 715.49 0.494482 715.372 0.375493C715.254 0.256505 715.113 0.162064 714.958 0.0976176C714.804 0.0331713 714.638 -5.19568e-06 714.47 6.10309e-10C714.13 6.10307e-10 713.805 0.134853 713.565 0.374893C713.325 0.614934 713.19 0.940499 713.19 1.27997C713.19 1.61944 713.325 1.945 713.565 2.18504C713.805 2.42508 714.13 2.55994 714.47 2.55994V2.55994Z" fill="#3060D7"/>
<path d="M728.88 2.55994C729.218 2.5573 729.541 2.42128 729.779 2.18152C730.017 1.94177 730.15 1.61771 730.15 1.27997C730.151 1.11235 730.12 0.946137 730.056 0.790901C729.993 0.635665 729.9 0.494482 729.782 0.375493C729.664 0.256505 729.523 0.162064 729.368 0.0976176C729.214 0.0331713 729.048 -5.19568e-06 728.88 6.10309e-10C728.541 6.10307e-10 728.215 0.134853 727.975 0.374893C727.735 0.614934 727.6 0.940499 727.6 1.27997C727.6 1.61944 727.735 1.945 727.975 2.18504C728.215 2.42508 728.541 2.55994 728.88 2.55994V2.55994Z" fill="#3060D7"/>
<path d="M743.28 2.55994C743.618 2.5573 743.941 2.42128 744.179 2.18152C744.417 1.94177 744.55 1.61771 744.55 1.27997C744.551 1.11235 744.52 0.946137 744.456 0.790901C744.393 0.635665 744.3 0.494482 744.182 0.375493C744.064 0.256505 743.923 0.162064 743.768 0.0976176C743.614 0.0331713 743.448 -5.19568e-06 743.28 6.10309e-10C742.941 6.10307e-10 742.615 0.134853 742.375 0.374893C742.135 0.614934 742 0.940499 742 1.27997C742 1.61944 742.135 1.945 742.375 2.18504C742.615 2.42508 742.941 2.55994 743.28 2.55994V2.55994Z" fill="#3060D7"/>
<path d="M757.68 2.55994C758.387 2.55994 758.96 1.98688 758.96 1.27997C758.96 0.573061 758.387 0 757.68 0C756.973 0 756.4 0.573061 756.4 1.27997C756.4 1.98688 756.973 2.55994 757.68 2.55994Z" fill="#3060D7"/>
<path d="M772.08 2.55994C772.418 2.5573 772.741 2.42128 772.979 2.18152C773.216 1.94177 773.35 1.61771 773.35 1.27997C773.351 1.11235 773.319 0.946137 773.256 0.790901C773.193 0.635665 773.1 0.494482 772.981 0.375493C772.863 0.256505 772.723 0.162064 772.568 0.0976176C772.413 0.0331713 772.247 -5.19568e-06 772.08 6.10309e-10C771.74 6.10307e-10 771.415 0.134853 771.175 0.374893C770.935 0.614934 770.8 0.940499 770.8 1.27997C770.8 1.61944 770.935 1.945 771.175 2.18504C771.415 2.42508 771.74 2.55994 772.08 2.55994V2.55994Z" fill="#3060D7"/>
<path d="M786.47 2.55994C786.808 2.5573 787.131 2.42128 787.369 2.18152C787.607 1.94177 787.74 1.61771 787.74 1.27997C787.741 1.11235 787.709 0.946137 787.646 0.790901C787.583 0.635665 787.49 0.494482 787.372 0.375493C787.254 0.256505 787.113 0.162064 786.958 0.0976176C786.804 0.0331713 786.638 -5.19568e-06 786.47 6.10309e-10C786.13 6.10307e-10 785.805 0.134853 785.565 0.374893C785.325 0.614934 785.19 0.940499 785.19 1.27997C785.19 1.61944 785.325 1.945 785.565 2.18504C785.805 2.42508 786.13 2.55994 786.47 2.55994V2.55994Z" fill="#3060D7"/>
<path d="M800.88 2.55994C801.218 2.5573 801.541 2.42128 801.779 2.18152C802.017 1.94177 802.15 1.61771 802.15 1.27997C802.151 1.11235 802.119 0.946137 802.056 0.790901C801.993 0.635665 801.9 0.494482 801.782 0.375493C801.664 0.256505 801.523 0.162064 801.368 0.0976176C801.214 0.0331713 801.048 -5.19568e-06 800.88 6.10309e-10C800.541 6.10307e-10 800.215 0.134853 799.975 0.374893C799.735 0.614934 799.6 0.940499 799.6 1.27997C799.6 1.61944 799.735 1.945 799.975 2.18504C800.215 2.42508 800.541 2.55994 800.88 2.55994V2.55994Z" fill="#3060D7"/>
<path d="M815.28 2.55994C815.618 2.5573 815.941 2.42128 816.179 2.18152C816.417 1.94177 816.55 1.61771 816.55 1.27997C816.551 1.11235 816.52 0.946137 816.456 0.790901C816.393 0.635665 816.3 0.494482 816.182 0.375493C816.064 0.256505 815.923 0.162064 815.768 0.0976176C815.614 0.0331713 815.448 -5.19568e-06 815.28 6.10309e-10C814.941 6.10307e-10 814.615 0.134853 814.375 0.374893C814.135 0.614934 814 0.940499 814 1.27997C814 1.61944 814.135 1.945 814.375 2.18504C814.615 2.42508 814.941 2.55994 815.28 2.55994V2.55994Z" fill="#3060D7"/>
<path d="M829.68 2.55994C830.387 2.55994 830.96 1.98688 830.96 1.27997C830.96 0.573061 830.387 0 829.68 0C828.973 0 828.4 0.573061 828.4 1.27997C828.4 1.98688 828.973 2.55994 829.68 2.55994Z" fill="#3060D7"/>
<path d="M844.08 2.55994C844.418 2.5573 844.741 2.42128 844.978 2.18152C845.216 1.94177 845.35 1.61771 845.35 1.27997C845.351 1.11235 845.319 0.946137 845.256 0.790901C845.193 0.635665 845.1 0.494482 844.981 0.375493C844.863 0.256505 844.723 0.162064 844.568 0.0976176C844.413 0.0331713 844.247 -5.19568e-06 844.08 6.10309e-10C843.74 6.10307e-10 843.415 0.134853 843.175 0.374893C842.935 0.614934 842.8 0.940499 842.8 1.27997C842.8 1.61944 842.935 1.945 843.175 2.18504C843.415 2.42508 843.74 2.55994 844.08 2.55994V2.55994Z" fill="#3060D7"/>
<path d="M858.47 2.55994C858.808 2.5573 859.131 2.42128 859.369 2.18152C859.607 1.94177 859.74 1.61771 859.74 1.27997C859.741 1.11235 859.709 0.946137 859.646 0.790901C859.583 0.635665 859.49 0.494482 859.372 0.375493C859.254 0.256505 859.113 0.162064 858.958 0.0976176C858.804 0.0331713 858.638 -5.19568e-06 858.47 6.10309e-10C858.13 6.10307e-10 857.805 0.134853 857.565 0.374893C857.325 0.614934 857.19 0.940499 857.19 1.27997C857.19 1.61944 857.325 1.945 857.565 2.18504C857.805 2.42508 858.13 2.55994 858.47 2.55994V2.55994Z" fill="#3060D7"/>
<path d="M872.88 2.55994C873.218 2.5573 873.541 2.42128 873.779 2.18152C874.017 1.94177 874.15 1.61771 874.15 1.27997C874.151 1.11235 874.119 0.946137 874.056 0.790901C873.993 0.635665 873.9 0.494482 873.782 0.375493C873.664 0.256505 873.523 0.162064 873.368 0.0976176C873.214 0.0331713 873.048 -5.19568e-06 872.88 6.10309e-10C872.541 6.10307e-10 872.215 0.134853 871.975 0.374893C871.735 0.614934 871.6 0.940499 871.6 1.27997C871.6 1.61944 871.735 1.945 871.975 2.18504C872.215 2.42508 872.541 2.55994 872.88 2.55994V2.55994Z" fill="#3060D7"/>
<path d="M887.28 2.55994C887.618 2.5573 887.941 2.42128 888.179 2.18152C888.417 1.94177 888.55 1.61771 888.55 1.27997C888.551 1.11235 888.52 0.946137 888.456 0.790901C888.393 0.635665 888.3 0.494482 888.182 0.375493C888.064 0.256505 887.923 0.162064 887.768 0.0976176C887.614 0.0331713 887.448 -5.19568e-06 887.28 6.10309e-10C886.941 6.10307e-10 886.615 0.134853 886.375 0.374893C886.135 0.614934 886 0.940499 886 1.27997C886 1.61944 886.135 1.945 886.375 2.18504C886.615 2.42508 886.941 2.55994 887.28 2.55994V2.55994Z" fill="#3060D7"/>
<path d="M901.68 2.55994C902.387 2.55994 902.96 1.98688 902.96 1.27997C902.96 0.573061 902.387 0 901.68 0C900.973 0 900.4 0.573061 900.4 1.27997C900.4 1.98688 900.973 2.55994 901.68 2.55994Z" fill="#3060D7"/>
<path d="M916.08 2.55994C916.418 2.5573 916.741 2.42128 916.978 2.18152C917.216 1.94177 917.35 1.61771 917.35 1.27997C917.351 1.11235 917.319 0.946137 917.256 0.790901C917.193 0.635665 917.099 0.494482 916.981 0.375493C916.863 0.256505 916.723 0.162064 916.568 0.0976176C916.413 0.0331713 916.247 -5.19568e-06 916.08 6.10309e-10C915.74 6.10307e-10 915.415 0.134853 915.175 0.374893C914.935 0.614934 914.8 0.940499 914.8 1.27997C914.8 1.61944 914.935 1.945 915.175 2.18504C915.415 2.42508 915.74 2.55994 916.08 2.55994V2.55994Z" fill="#3060D7"/>
<path d="M930.47 2.55994C930.808 2.5573 931.131 2.42128 931.369 2.18152C931.607 1.94177 931.74 1.61771 931.74 1.27997C931.741 1.11235 931.709 0.946137 931.646 0.790901C931.583 0.635665 931.49 0.494482 931.372 0.375493C931.254 0.256505 931.113 0.162064 930.958 0.0976176C930.804 0.0331713 930.638 -5.19568e-06 930.47 6.10309e-10C930.13 6.10307e-10 929.805 0.134853 929.565 0.374893C929.325 0.614934 929.19 0.940499 929.19 1.27997C929.19 1.61944 929.325 1.945 929.565 2.18504C929.805 2.42508 930.13 2.55994 930.47 2.55994V2.55994Z" fill="#3060D7"/>
<path d="M944.88 2.55994C945.218 2.5573 945.541 2.42128 945.779 2.18152C946.017 1.94177 946.15 1.61771 946.15 1.27997C946.151 1.11235 946.119 0.946137 946.056 0.790901C945.993 0.635665 945.9 0.494482 945.782 0.375493C945.664 0.256505 945.523 0.162064 945.368 0.0976176C945.214 0.0331713 945.048 -5.19568e-06 944.88 6.10309e-10C944.541 6.10307e-10 944.215 0.134853 943.975 0.374893C943.735 0.614934 943.6 0.940499 943.6 1.27997C943.6 1.61944 943.735 1.945 943.975 2.18504C944.215 2.42508 944.541 2.55994 944.88 2.55994V2.55994Z" fill="#3060D7"/>
<path d="M635.28 16.9602C635.616 16.9576 635.938 16.8229 636.175 16.5853C636.413 16.3477 636.547 16.0262 636.55 15.6902C636.551 15.5226 636.52 15.3563 636.456 15.2011C636.393 15.0458 636.3 14.9047 636.182 14.7857C636.064 14.6667 635.923 14.5722 635.768 14.5078C635.614 14.4433 635.448 14.4102 635.28 14.4102C634.941 14.4102 634.615 14.545 634.375 14.7851C634.135 15.0251 634 15.3507 634 15.6902C634.003 16.0279 634.139 16.3509 634.378 16.5888C634.618 16.8267 634.942 16.9602 635.28 16.9602Z" fill="#3060D7"/>
<path d="M649.68 16.96C650.387 16.96 650.96 16.3869 650.96 15.68C650.96 14.973 650.387 14.3999 649.68 14.3999C648.973 14.3999 648.4 14.973 648.4 15.68C648.4 16.3869 648.973 16.96 649.68 16.96Z" fill="#3060D7"/>
<path d="M664.08 16.9602C664.416 16.9576 664.737 16.8229 664.975 16.5853C665.213 16.3477 665.347 16.0262 665.35 15.6902C665.351 15.5226 665.319 15.3563 665.256 15.2011C665.193 15.0458 665.1 14.9047 664.981 14.7857C664.863 14.6667 664.723 14.5722 664.568 14.5078C664.413 14.4433 664.247 14.4102 664.08 14.4102C663.912 14.4102 663.745 14.4433 663.59 14.5076C663.435 14.5719 663.294 14.6662 663.175 14.7851C663.056 14.9039 662.962 15.045 662.897 15.2003C662.833 15.3556 662.8 15.5221 662.8 15.6902C662.802 16.0279 662.938 16.3509 663.178 16.5888C663.418 16.8267 663.742 16.9602 664.08 16.9602Z" fill="#3060D7"/>
<path d="M678.47 16.96C678.808 16.96 679.132 16.8265 679.372 16.5886C679.612 16.3507 679.748 16.0277 679.75 15.69C679.753 15.5207 679.722 15.3525 679.658 15.1955C679.595 15.0384 679.501 14.8956 679.382 14.7754C679.263 14.6552 679.121 14.5601 678.964 14.4956C678.807 14.4311 678.64 14.3986 678.47 14.3999C678.302 14.4013 678.136 14.4357 677.981 14.5012C677.826 14.5667 677.686 14.6621 677.568 14.7819C677.45 14.9017 677.357 15.0435 677.294 15.1993C677.231 15.3551 677.199 15.5219 677.2 15.69C677.203 16.026 677.337 16.3475 677.575 16.5851C677.813 16.8227 678.134 16.9573 678.47 16.96V16.96Z" fill="#3060D7"/>
<path d="M692.88 16.9602C693.216 16.9576 693.538 16.8229 693.775 16.5853C694.013 16.3477 694.147 16.0262 694.15 15.6902C694.151 15.5226 694.12 15.3563 694.056 15.2011C693.993 15.0458 693.9 14.9047 693.782 14.7857C693.664 14.6667 693.523 14.5722 693.368 14.5078C693.214 14.4433 693.048 14.4102 692.88 14.4102C692.541 14.4102 692.215 14.545 691.975 14.7851C691.735 15.0251 691.6 15.3507 691.6 15.6902C691.603 16.0279 691.739 16.3509 691.979 16.5888C692.218 16.8267 692.542 16.9602 692.88 16.9602V16.9602Z" fill="#3060D7"/>
<path d="M707.28 16.9602C707.616 16.9576 707.938 16.8229 708.175 16.5853C708.413 16.3477 708.547 16.0262 708.55 15.6902C708.551 15.5226 708.52 15.3563 708.456 15.2011C708.393 15.0458 708.3 14.9047 708.182 14.7857C708.064 14.6667 707.923 14.5722 707.768 14.5078C707.614 14.4433 707.448 14.4102 707.28 14.4102C706.941 14.4102 706.615 14.545 706.375 14.7851C706.135 15.0251 706 15.3507 706 15.6902C706.003 16.0279 706.139 16.3509 706.378 16.5888C706.618 16.8267 706.942 16.9602 707.28 16.9602V16.9602Z" fill="#3060D7"/>
<path d="M721.68 16.96C722.387 16.96 722.96 16.3869 722.96 15.68C722.96 14.973 722.387 14.3999 721.68 14.3999C720.973 14.3999 720.4 14.973 720.4 15.68C720.4 16.3869 720.973 16.96 721.68 16.96Z" fill="#3060D7"/>
<path d="M736.08 16.9602C736.416 16.9576 736.737 16.8229 736.975 16.5853C737.213 16.3477 737.347 16.0262 737.35 15.6902C737.351 15.5226 737.319 15.3563 737.256 15.2011C737.193 15.0458 737.1 14.9047 736.981 14.7857C736.863 14.6667 736.723 14.5722 736.568 14.5078C736.413 14.4433 736.247 14.4102 736.08 14.4102C735.74 14.4102 735.415 14.545 735.175 14.7851C734.935 15.0251 734.8 15.3507 734.8 15.6902C734.802 16.0279 734.938 16.3509 735.178 16.5888C735.418 16.8267 735.742 16.9602 736.08 16.9602Z" fill="#3060D7"/>
<path d="M750.47 16.96C750.808 16.96 751.132 16.8265 751.372 16.5886C751.612 16.3507 751.748 16.0277 751.75 15.69C751.753 15.5207 751.722 15.3525 751.658 15.1955C751.595 15.0384 751.501 14.8956 751.382 14.7754C751.263 14.6552 751.121 14.5601 750.964 14.4956C750.807 14.4311 750.64 14.3986 750.47 14.3999C750.302 14.4013 750.136 14.4357 749.981 14.5012C749.826 14.5667 749.686 14.6621 749.568 14.7819C749.45 14.9017 749.357 15.0435 749.294 15.1993C749.231 15.3551 749.199 15.5219 749.2 15.69C749.203 16.026 749.337 16.3475 749.575 16.5851C749.813 16.8227 750.134 16.9573 750.47 16.96V16.96Z" fill="#3060D7"/>
<path d="M764.88 16.9602C765.216 16.9576 765.538 16.8229 765.775 16.5853C766.013 16.3477 766.147 16.0262 766.15 15.6902C766.151 15.5226 766.12 15.3563 766.056 15.2011C765.993 15.0458 765.9 14.9047 765.782 14.7857C765.664 14.6667 765.523 14.5722 765.368 14.5078C765.214 14.4433 765.048 14.4102 764.88 14.4102C764.712 14.4102 764.546 14.4433 764.39 14.5076C764.235 14.5719 764.094 14.6662 763.975 14.7851C763.856 14.9039 763.762 15.045 763.698 15.2003C763.633 15.3556 763.6 15.5221 763.6 15.6902C763.603 16.0279 763.739 16.3509 763.979 16.5888C764.218 16.8267 764.542 16.9602 764.88 16.9602Z" fill="#3060D7"/>
<path d="M779.28 16.9602C779.616 16.9576 779.938 16.8229 780.175 16.5853C780.413 16.3477 780.547 16.0262 780.55 15.6902C780.551 15.5226 780.52 15.3563 780.456 15.2011C780.393 15.0458 780.3 14.9047 780.182 14.7857C780.064 14.6667 779.923 14.5722 779.768 14.5078C779.614 14.4433 779.448 14.4102 779.28 14.4102C779.112 14.4102 778.945 14.4433 778.79 14.5076C778.635 14.5719 778.494 14.6662 778.375 14.7851C778.256 14.9039 778.162 15.045 778.097 15.2003C778.033 15.3556 778 15.5221 778 15.6902C778.003 16.0279 778.139 16.3509 778.378 16.5888C778.618 16.8267 778.942 16.9602 779.28 16.9602Z" fill="#3060D7"/>
<path d="M793.68 16.96C794.387 16.96 794.96 16.3869 794.96 15.68C794.96 14.973 794.387 14.3999 793.68 14.3999C792.973 14.3999 792.4 14.973 792.4 15.68C792.4 16.3869 792.973 16.96 793.68 16.96Z" fill="#3060D7"/>
<path d="M808.08 16.9602C808.416 16.9576 808.737 16.8229 808.975 16.5853C809.213 16.3477 809.347 16.0262 809.35 15.6902C809.351 15.5226 809.319 15.3563 809.256 15.2011C809.193 15.0458 809.1 14.9047 808.981 14.7857C808.863 14.6667 808.723 14.5722 808.568 14.5078C808.413 14.4433 808.247 14.4102 808.08 14.4102C807.74 14.4102 807.415 14.545 807.175 14.7851C806.935 15.0251 806.8 15.3507 806.8 15.6902C806.802 16.0279 806.938 16.3509 807.178 16.5888C807.418 16.8267 807.742 16.9602 808.08 16.9602Z" fill="#3060D7"/>
<path d="M822.47 16.96C822.808 16.96 823.132 16.8265 823.372 16.5886C823.611 16.3507 823.748 16.0277 823.75 15.69C823.753 15.5207 823.722 15.3525 823.658 15.1955C823.595 15.0384 823.501 14.8956 823.382 14.7754C823.263 14.6552 823.12 14.5601 822.964 14.4956C822.807 14.4311 822.64 14.3986 822.47 14.3999C822.302 14.4013 822.136 14.4357 821.981 14.5012C821.826 14.5667 821.686 14.6621 821.568 14.7819C821.45 14.9017 821.357 15.0435 821.294 15.1993C821.231 15.3551 821.199 15.5219 821.2 15.69C821.203 16.026 821.337 16.3475 821.575 16.5851C821.813 16.8227 822.134 16.9573 822.47 16.96V16.96Z" fill="#3060D7"/>
<path d="M836.88 16.9602C837.216 16.9576 837.538 16.8229 837.775 16.5853C838.013 16.3477 838.147 16.0262 838.15 15.6902C838.151 15.5226 838.119 15.3563 838.056 15.2011C837.993 15.0458 837.9 14.9047 837.782 14.7857C837.664 14.6667 837.523 14.5722 837.368 14.5078C837.214 14.4433 837.048 14.4102 836.88 14.4102C836.541 14.4102 836.215 14.545 835.975 14.7851C835.735 15.0251 835.6 15.3507 835.6 15.6902C835.603 16.0279 835.739 16.3509 835.979 16.5888C836.218 16.8267 836.542 16.9602 836.88 16.9602V16.9602Z" fill="#3060D7"/>
<path d="M851.28 16.9602C851.616 16.9576 851.938 16.8229 852.175 16.5853C852.413 16.3477 852.547 16.0262 852.55 15.6902C852.551 15.5226 852.52 15.3563 852.456 15.2011C852.393 15.0458 852.3 14.9047 852.182 14.7857C852.064 14.6667 851.923 14.5722 851.768 14.5078C851.614 14.4433 851.448 14.4102 851.28 14.4102C850.941 14.4102 850.615 14.545 850.375 14.7851C850.135 15.0251 850 15.3507 850 15.6902C850.003 16.0279 850.139 16.3509 850.378 16.5888C850.618 16.8267 850.942 16.9602 851.28 16.9602V16.9602Z" fill="#3060D7"/>
<path d="M865.68 16.96C866.387 16.96 866.96 16.3869 866.96 15.68C866.96 14.973 866.387 14.3999 865.68 14.3999C864.973 14.3999 864.4 14.973 864.4 15.68C864.4 16.3869 864.973 16.96 865.68 16.96Z" fill="#3060D7"/>
<path d="M880.08 16.9602C880.416 16.9576 880.737 16.8229 880.975 16.5853C881.213 16.3477 881.347 16.0262 881.35 15.6902C881.351 15.5226 881.319 15.3563 881.256 15.2011C881.193 15.0458 881.1 14.9047 880.981 14.7857C880.863 14.6667 880.723 14.5722 880.568 14.5078C880.413 14.4433 880.247 14.4102 880.08 14.4102C879.74 14.4102 879.415 14.545 879.175 14.7851C878.935 15.0251 878.8 15.3507 878.8 15.6902C878.802 16.0279 878.938 16.3509 879.178 16.5888C879.418 16.8267 879.742 16.9602 880.08 16.9602Z" fill="#3060D7"/>
<path d="M894.47 16.96C894.808 16.96 895.132 16.8265 895.372 16.5886C895.611 16.3507 895.748 16.0277 895.75 15.69C895.753 15.5207 895.722 15.3525 895.658 15.1955C895.595 15.0384 895.501 14.8956 895.382 14.7754C895.263 14.6552 895.12 14.5601 894.964 14.4956C894.807 14.4311 894.64 14.3986 894.47 14.3999C894.302 14.4013 894.136 14.4357 893.981 14.5012C893.826 14.5667 893.686 14.6621 893.568 14.7819C893.45 14.9017 893.357 15.0435 893.294 15.1993C893.231 15.3551 893.199 15.5219 893.2 15.69C893.203 16.026 893.337 16.3475 893.575 16.5851C893.813 16.8227 894.134 16.9573 894.47 16.96V16.96Z" fill="#3060D7"/>
<path d="M908.88 16.9602C909.216 16.9576 909.538 16.8229 909.775 16.5853C910.013 16.3477 910.147 16.0262 910.15 15.6902C910.151 15.5226 910.119 15.3563 910.056 15.2011C909.993 15.0458 909.9 14.9047 909.782 14.7857C909.664 14.6667 909.523 14.5722 909.368 14.5078C909.214 14.4433 909.048 14.4102 908.88 14.4102C908.712 14.4102 908.546 14.4433 908.39 14.5076C908.235 14.5719 908.094 14.6662 907.975 14.7851C907.856 14.9039 907.762 15.045 907.698 15.2003C907.633 15.3556 907.6 15.5221 907.6 15.6902C907.603 16.0279 907.739 16.3509 907.979 16.5888C908.218 16.8267 908.542 16.9602 908.88 16.9602Z" fill="#3060D7"/>
<path d="M923.28 16.9602C923.616 16.9576 923.938 16.8229 924.175 16.5853C924.413 16.3477 924.547 16.0262 924.55 15.6902C924.551 15.5226 924.52 15.3563 924.456 15.2011C924.393 15.0458 924.3 14.9047 924.182 14.7857C924.064 14.6667 923.923 14.5722 923.768 14.5078C923.614 14.4433 923.448 14.4102 923.28 14.4102C922.941 14.4102 922.615 14.545 922.375 14.7851C922.135 15.0251 922 15.3507 922 15.6902C922.003 16.0279 922.139 16.3509 922.378 16.5888C922.618 16.8267 922.942 16.9602 923.28 16.9602Z" fill="#3060D7"/>
<path d="M937.68 16.96C938.387 16.96 938.96 16.3869 938.96 15.68C938.96 14.973 938.387 14.3999 937.68 14.3999C936.973 14.3999 936.4 14.973 936.4 15.68C936.4 16.3869 936.973 16.96 937.68 16.96Z" fill="#3060D7"/>
<path d="M325.47 2.55994C325.808 2.5573 326.131 2.42128 326.369 2.18152C326.606 1.94177 326.74 1.61771 326.74 1.27997C326.741 1.11235 326.709 0.946137 326.646 0.790901C326.583 0.635665 326.49 0.494482 326.372 0.375493C326.253 0.256505 326.113 0.162064 325.958 0.0976176C325.804 0.0331713 325.638 -5.19568e-06 325.47 6.10309e-10C325.13 6.10307e-10 324.805 0.134853 324.565 0.374893C324.325 0.614934 324.19 0.940499 324.19 1.27997C324.19 1.61944 324.325 1.945 324.565 2.18504C324.805 2.42508 325.13 2.55994 325.47 2.55994V2.55994Z" fill="#3060D7"/>
<path d="M339.88 2.55994C340.218 2.5573 340.541 2.42128 340.779 2.18152C341.017 1.94177 341.15 1.61771 341.15 1.27997C341.151 1.11235 341.12 0.946137 341.056 0.790901C340.993 0.635665 340.9 0.494482 340.782 0.375493C340.664 0.256505 340.523 0.162064 340.368 0.0976176C340.214 0.0331713 340.048 -5.19568e-06 339.88 6.10309e-10C339.541 6.10309e-10 339.215 0.134853 338.975 0.374893C338.735 0.614934 338.6 0.940499 338.6 1.27997C338.6 1.61944 338.735 1.945 338.975 2.18504C339.215 2.42508 339.541 2.55994 339.88 2.55994V2.55994Z" fill="#3060D7"/>
<path d="M354.28 2.55994C354.618 2.5573 354.941 2.42128 355.179 2.18152C355.417 1.94177 355.55 1.61771 355.55 1.27997C355.551 1.11235 355.519 0.946137 355.456 0.790901C355.393 0.635665 355.3 0.494482 355.182 0.375493C355.064 0.256505 354.923 0.162064 354.768 0.0976176C354.614 0.0331713 354.448 -5.19568e-06 354.28 6.10309e-10C353.941 6.10309e-10 353.615 0.134853 353.375 0.374893C353.135 0.614934 353 0.940499 353 1.27997C353 1.61944 353.135 1.945 353.375 2.18504C353.615 2.42508 353.941 2.55994 354.28 2.55994V2.55994Z" fill="#3060D7"/>
<path d="M368.68 2.55994C369.387 2.55994 369.96 1.98688 369.96 1.27997C369.96 0.573061 369.387 0 368.68 0C367.973 0 367.4 0.573061 367.4 1.27997C367.4 1.98688 367.973 2.55994 368.68 2.55994Z" fill="#3060D7"/>
<path d="M383.08 2.55994C383.418 2.5573 383.741 2.42128 383.978 2.18152C384.216 1.94177 384.35 1.61771 384.35 1.27997C384.351 1.11235 384.319 0.946137 384.256 0.790901C384.193 0.635665 384.099 0.494482 383.981 0.375493C383.863 0.256505 383.723 0.162064 383.568 0.0976176C383.413 0.0331713 383.247 -5.19568e-06 383.08 6.10309e-10C382.74 6.10307e-10 382.415 0.134853 382.175 0.374893C381.935 0.614934 381.8 0.940499 381.8 1.27997C381.8 1.61944 381.935 1.945 382.175 2.18504C382.415 2.42508 382.74 2.55994 383.08 2.55994V2.55994Z" fill="#3060D7"/>
<path d="M397.47 2.55994C397.808 2.5573 398.131 2.42128 398.369 2.18152C398.607 1.94177 398.74 1.61771 398.74 1.27997C398.741 1.11235 398.709 0.946137 398.646 0.790901C398.583 0.635665 398.49 0.494482 398.372 0.375493C398.254 0.256505 398.113 0.162064 397.958 0.0976176C397.804 0.0331713 397.638 -5.19568e-06 397.47 6.10309e-10C397.13 6.10307e-10 396.805 0.134853 396.565 0.374893C396.325 0.614934 396.19 0.940499 396.19 1.27997C396.19 1.61944 396.325 1.945 396.565 2.18504C396.805 2.42508 397.13 2.55994 397.47 2.55994V2.55994Z" fill="#3060D7"/>
<path d="M411.88 2.55994C412.218 2.5573 412.541 2.42128 412.779 2.18152C413.017 1.94177 413.15 1.61771 413.15 1.27997C413.151 1.11235 413.119 0.946137 413.056 0.790901C412.993 0.635665 412.9 0.494482 412.782 0.375493C412.664 0.256505 412.523 0.162064 412.368 0.0976176C412.214 0.0331713 412.048 -5.19568e-06 411.88 6.10309e-10C411.541 6.10307e-10 411.215 0.134853 410.975 0.374893C410.735 0.614934 410.6 0.940499 410.6 1.27997C410.6 1.61944 410.735 1.945 410.975 2.18504C411.215 2.42508 411.541 2.55994 411.88 2.55994V2.55994Z" fill="#3060D7"/>
<path d="M426.28 2.55994C426.618 2.5573 426.941 2.42128 427.179 2.18152C427.417 1.94177 427.55 1.61771 427.55 1.27997C427.551 1.11235 427.519 0.946137 427.456 0.790901C427.393 0.635665 427.3 0.494482 427.182 0.375493C427.063 0.256505 426.923 0.162064 426.768 0.0976176C426.614 0.0331713 426.448 -5.19568e-06 426.28 6.10309e-10C425.941 6.10307e-10 425.615 0.134853 425.375 0.374893C425.135 0.614934 425 0.940499 425 1.27997C425 1.61944 425.135 1.945 425.375 2.18504C425.615 2.42508 425.941 2.55994 426.28 2.55994V2.55994Z" fill="#3060D7"/>
<path d="M440.68 2.55994C441.387 2.55994 441.96 1.98688 441.96 1.27997C441.96 0.573061 441.387 0 440.68 0C439.973 0 439.4 0.573061 439.4 1.27997C439.4 1.98688 439.973 2.55994 440.68 2.55994Z" fill="#3060D7"/>
<path d="M455.08 2.55994C455.418 2.5573 455.741 2.42128 455.978 2.18152C456.216 1.94177 456.35 1.61771 456.35 1.27997C456.351 1.11235 456.319 0.946137 456.256 0.790901C456.193 0.635665 456.099 0.494482 455.981 0.375493C455.863 0.256505 455.723 0.162064 455.568 0.0976176C455.413 0.0331713 455.247 -5.19568e-06 455.08 6.10309e-10C454.74 6.10307e-10 454.415 0.134853 454.175 0.374893C453.935 0.614934 453.8 0.940499 453.8 1.27997C453.8 1.61944 453.935 1.945 454.175 2.18504C454.415 2.42508 454.74 2.55994 455.08 2.55994V2.55994Z" fill="#3060D7"/>
<path d="M469.47 2.55994C469.808 2.5573 470.131 2.42128 470.369 2.18152C470.607 1.94177 470.74 1.61771 470.74 1.27997C470.741 1.11235 470.709 0.946137 470.646 0.790901C470.583 0.635665 470.49 0.494482 470.372 0.375493C470.254 0.256505 470.113 0.162064 469.958 0.0976176C469.804 0.0331713 469.638 -5.19568e-06 469.47 6.10309e-10C469.13 6.10307e-10 468.805 0.134853 468.565 0.374893C468.325 0.614934 468.19 0.940499 468.19 1.27997C468.19 1.61944 468.325 1.945 468.565 2.18504C468.805 2.42508 469.13 2.55994 469.47 2.55994V2.55994Z" fill="#3060D7"/>
<path d="M483.88 2.55994C484.218 2.5573 484.541 2.42128 484.779 2.18152C485.017 1.94177 485.15 1.61771 485.15 1.27997C485.151 1.11235 485.119 0.946137 485.056 0.790901C484.993 0.635665 484.9 0.494482 484.782 0.375493C484.664 0.256505 484.523 0.162064 484.368 0.0976176C484.214 0.0331713 484.048 -5.19568e-06 483.88 6.10309e-10C483.541 6.10307e-10 483.215 0.134853 482.975 0.374893C482.735 0.614934 482.6 0.940499 482.6 1.27997C482.6 1.61944 482.735 1.945 482.975 2.18504C483.215 2.42508 483.541 2.55994 483.88 2.55994V2.55994Z" fill="#3060D7"/>
<path d="M498.28 2.55994C498.618 2.5573 498.941 2.42128 499.179 2.18152C499.416 1.94177 499.55 1.61771 499.55 1.27997C499.551 1.11235 499.519 0.946137 499.456 0.790901C499.393 0.635665 499.3 0.494482 499.182 0.375493C499.063 0.256505 498.923 0.162064 498.768 0.0976176C498.614 0.0331713 498.448 -5.19568e-06 498.28 6.10309e-10C497.941 6.10307e-10 497.615 0.134853 497.375 0.374893C497.135 0.614934 497 0.940499 497 1.27997C497 1.61944 497.135 1.945 497.375 2.18504C497.615 2.42508 497.941 2.55994 498.28 2.55994V2.55994Z" fill="#3060D7"/>
<path d="M512.68 2.55994C513.387 2.55994 513.96 1.98688 513.96 1.27997C513.96 0.573061 513.387 0 512.68 0C511.973 0 511.4 0.573061 511.4 1.27997C511.4 1.98688 511.973 2.55994 512.68 2.55994Z" fill="#3060D7"/>
<path d="M527.08 2.55994C527.418 2.5573 527.741 2.42128 527.978 2.18152C528.216 1.94177 528.35 1.61771 528.35 1.27997C528.351 1.11235 528.319 0.946137 528.256 0.790901C528.193 0.635665 528.1 0.494482 527.981 0.375493C527.863 0.256505 527.723 0.162064 527.568 0.0976176C527.413 0.0331713 527.247 -5.19568e-06 527.08 6.10309e-10C526.74 6.10307e-10 526.415 0.134853 526.175 0.374893C525.935 0.614934 525.8 0.940499 525.8 1.27997C525.8 1.61944 525.935 1.945 526.175 2.18504C526.415 2.42508 526.74 2.55994 527.08 2.55994V2.55994Z" fill="#3060D7"/>
<path d="M541.47 2.55994C541.808 2.5573 542.131 2.42128 542.369 2.18152C542.607 1.94177 542.74 1.61771 542.74 1.27997C542.741 1.11235 542.709 0.946137 542.646 0.790901C542.583 0.635665 542.49 0.494482 542.372 0.375493C542.254 0.256505 542.113 0.162064 541.958 0.0976176C541.804 0.0331713 541.638 -5.19568e-06 541.47 6.10309e-10C541.13 6.10307e-10 540.805 0.134853 540.565 0.374893C540.325 0.614934 540.19 0.940499 540.19 1.27997C540.19 1.61944 540.325 1.945 540.565 2.18504C540.805 2.42508 541.13 2.55994 541.47 2.55994V2.55994Z" fill="#3060D7"/>
<path d="M555.88 2.55994C556.218 2.5573 556.541 2.42128 556.779 2.18152C557.017 1.94177 557.15 1.61771 557.15 1.27997C557.151 1.11235 557.119 0.946137 557.056 0.790901C556.993 0.635665 556.9 0.494482 556.782 0.375493C556.664 0.256505 556.523 0.162064 556.368 0.0976176C556.214 0.0331713 556.048 -5.19568e-06 555.88 6.10309e-10C555.541 6.10307e-10 555.215 0.134853 554.975 0.374893C554.735 0.614934 554.6 0.940499 554.6 1.27997C554.6 1.61944 554.735 1.945 554.975 2.18504C555.215 2.42508 555.541 2.55994 555.88 2.55994V2.55994Z" fill="#3060D7"/>
<path d="M570.28 2.55994C570.618 2.5573 570.941 2.42128 571.179 2.18152C571.417 1.94177 571.55 1.61771 571.55 1.27997C571.551 1.11235 571.519 0.946137 571.456 0.790901C571.393 0.635665 571.3 0.494482 571.182 0.375493C571.064 0.256505 570.923 0.162064 570.768 0.0976176C570.614 0.0331713 570.448 -5.19568e-06 570.28 6.10309e-10C569.941 6.10307e-10 569.615 0.134853 569.375 0.374893C569.135 0.614934 569 0.940499 569 1.27997C569 1.61944 569.135 1.945 569.375 2.18504C569.615 2.42508 569.941 2.55994 570.28 2.55994V2.55994Z" fill="#3060D7"/>
<path d="M584.68 2.55994C585.387 2.55994 585.96 1.98688 585.96 1.27997C585.96 0.573061 585.387 0 584.68 0C583.973 0 583.4 0.573061 583.4 1.27997C583.4 1.98688 583.973 2.55994 584.68 2.55994Z" fill="#3060D7"/>
<path d="M599.08 2.55994C599.418 2.5573 599.741 2.42128 599.979 2.18152C600.216 1.94177 600.35 1.61771 600.35 1.27997C600.351 1.11235 600.319 0.946137 600.256 0.790901C600.193 0.635665 600.1 0.494482 599.981 0.375493C599.863 0.256505 599.723 0.162064 599.568 0.0976176C599.413 0.0331713 599.247 -5.19568e-06 599.08 6.10309e-10C598.74 6.10307e-10 598.415 0.134853 598.175 0.374893C597.935 0.614934 597.8 0.940499 597.8 1.27997C597.8 1.61944 597.935 1.945 598.175 2.18504C598.415 2.42508 598.74 2.55994 599.08 2.55994V2.55994Z" fill="#3060D7"/>
<path d="M613.47 2.55994C613.808 2.5573 614.131 2.42128 614.369 2.18152C614.606 1.94177 614.74 1.61771 614.74 1.27997C614.741 1.11235 614.709 0.946137 614.646 0.790901C614.583 0.635665 614.49 0.494482 614.372 0.375493C614.253 0.256505 614.113 0.162064 613.958 0.0976176C613.804 0.0331713 613.638 -5.19568e-06 613.47 6.10309e-10C613.13 6.10307e-10 612.805 0.134853 612.565 0.374893C612.325 0.614934 612.19 0.940499 612.19 1.27997C612.19 1.61944 612.325 1.945 612.565 2.18504C612.805 2.42508 613.13 2.55994 613.47 2.55994V2.55994Z" fill="#3060D7"/>
<path d="M627.88 2.55994C628.218 2.5573 628.541 2.42128 628.779 2.18152C629.017 1.94177 629.15 1.61771 629.15 1.27997C629.151 1.11235 629.12 0.946137 629.056 0.790901C628.993 0.635665 628.9 0.494482 628.782 0.375493C628.664 0.256505 628.523 0.162064 628.368 0.0976176C628.214 0.0331713 628.048 -5.19568e-06 627.88 6.10309e-10C627.541 6.10307e-10 627.215 0.134853 626.975 0.374893C626.735 0.614934 626.6 0.940499 626.6 1.27997C626.6 1.61944 626.735 1.945 626.975 2.18504C627.215 2.42508 627.541 2.55994 627.88 2.55994V2.55994Z" fill="#3060D7"/>
<path d="M318.28 16.9602C318.616 16.9576 318.938 16.8229 319.175 16.5853C319.413 16.3477 319.547 16.0262 319.55 15.6902C319.551 15.5226 319.519 15.3563 319.456 15.2011C319.393 15.0458 319.3 14.9047 319.182 14.7857C319.064 14.6667 318.923 14.5722 318.768 14.5078C318.614 14.4433 318.448 14.4102 318.28 14.4102C317.941 14.4102 317.615 14.545 317.375 14.7851C317.135 15.0251 317 15.3507 317 15.6902C317.003 16.0279 317.139 16.3509 317.378 16.5888C317.618 16.8267 317.942 16.9602 318.28 16.9602Z" fill="#3060D7"/>
<path d="M332.68 16.96C333.387 16.96 333.96 16.3869 333.96 15.68C333.96 14.973 333.387 14.3999 332.68 14.3999C331.973 14.3999 331.4 14.973 331.4 15.68C331.4 16.3869 331.973 16.96 332.68 16.96Z" fill="#3060D7"/>
<path d="M347.08 16.9602C347.416 16.9576 347.737 16.8229 347.975 16.5853C348.213 16.3477 348.347 16.0262 348.35 15.6902C348.351 15.5226 348.319 15.3563 348.256 15.2011C348.193 15.0458 348.1 14.9047 347.981 14.7857C347.863 14.6667 347.723 14.5722 347.568 14.5078C347.413 14.4433 347.247 14.4102 347.08 14.4102C346.912 14.4102 346.745 14.4433 346.59 14.5076C346.435 14.5719 346.294 14.6662 346.175 14.7851C346.056 14.9039 345.962 15.045 345.897 15.2003C345.833 15.3556 345.8 15.5221 345.8 15.6902C345.802 16.0279 345.938 16.3509 346.178 16.5888C346.418 16.8267 346.742 16.9602 347.08 16.9602Z" fill="#3060D7"/>
<path d="M361.47 16.96C361.808 16.96 362.132 16.8265 362.372 16.5886C362.612 16.3507 362.748 16.0277 362.75 15.69C362.753 15.5207 362.722 15.3525 362.658 15.1955C362.595 15.0384 362.501 14.8956 362.382 14.7754C362.263 14.6552 362.121 14.5601 361.964 14.4956C361.807 14.4311 361.64 14.3986 361.47 14.3999C361.302 14.4013 361.136 14.4357 360.981 14.5012C360.826 14.5667 360.686 14.6621 360.568 14.7819C360.45 14.9017 360.357 15.0435 360.294 15.1993C360.231 15.3551 360.199 15.5219 360.2 15.69C360.203 16.026 360.337 16.3475 360.575 16.5851C360.813 16.8227 361.134 16.9573 361.47 16.96V16.96Z" fill="#3060D7"/>
<path d="M375.88 16.9602C376.216 16.9576 376.538 16.8229 376.775 16.5853C377.013 16.3477 377.147 16.0262 377.15 15.6902C377.151 15.5226 377.119 15.3563 377.056 15.2011C376.993 15.0458 376.9 14.9047 376.782 14.7857C376.664 14.6667 376.523 14.5722 376.368 14.5078C376.214 14.4433 376.048 14.4102 375.88 14.4102C375.541 14.4102 375.215 14.545 374.975 14.7851C374.735 15.0251 374.6 15.3507 374.6 15.6902C374.603 16.0279 374.739 16.3509 374.979 16.5888C375.218 16.8267 375.542 16.9602 375.88 16.9602V16.9602Z" fill="#3060D7"/>
<path d="M390.28 16.9602C390.616 16.9576 390.938 16.8229 391.175 16.5853C391.413 16.3477 391.547 16.0262 391.55 15.6902C391.551 15.5226 391.519 15.3563 391.456 15.2011C391.393 15.0458 391.3 14.9047 391.182 14.7857C391.063 14.6667 390.923 14.5722 390.768 14.5078C390.614 14.4433 390.448 14.4102 390.28 14.4102C389.941 14.4102 389.615 14.545 389.375 14.7851C389.135 15.0251 389 15.3507 389 15.6902C389.003 16.0279 389.139 16.3509 389.378 16.5888C389.618 16.8267 389.942 16.9602 390.28 16.9602V16.9602Z" fill="#3060D7"/>
<path d="M404.68 16.96C405.387 16.96 405.96 16.3869 405.96 15.68C405.96 14.973 405.387 14.3999 404.68 14.3999C403.973 14.3999 403.4 14.973 403.4 15.68C403.4 16.3869 403.973 16.96 404.68 16.96Z" fill="#3060D7"/>
<path d="M419.08 16.9602C419.416 16.9576 419.737 16.8229 419.975 16.5853C420.212 16.3477 420.347 16.0262 420.35 15.6902C420.351 15.5226 420.319 15.3563 420.256 15.2011C420.193 15.0458 420.099 14.9047 419.981 14.7857C419.863 14.6667 419.723 14.5722 419.568 14.5078C419.413 14.4433 419.247 14.4102 419.08 14.4102C418.74 14.4102 418.415 14.545 418.175 14.7851C417.935 15.0251 417.8 15.3507 417.8 15.6902C417.802 16.0279 417.938 16.3509 418.178 16.5888C418.418 16.8267 418.742 16.9602 419.08 16.9602Z" fill="#3060D7"/>
<path d="M433.47 16.96C433.808 16.96 434.132 16.8265 434.372 16.5886C434.611 16.3507 434.748 16.0277 434.75 15.69C434.753 15.5207 434.722 15.3525 434.658 15.1955C434.595 15.0384 434.501 14.8956 434.382 14.7754C434.263 14.6552 434.12 14.5601 433.964 14.4956C433.807 14.4311 433.639 14.3986 433.47 14.3999C433.302 14.4013 433.136 14.4357 432.981 14.5012C432.826 14.5667 432.686 14.6621 432.568 14.7819C432.45 14.9017 432.357 15.0435 432.294 15.1993C432.231 15.3551 432.199 15.5219 432.2 15.69C432.203 16.026 432.337 16.3475 432.575 16.5851C432.813 16.8227 433.134 16.9573 433.47 16.96V16.96Z" fill="#3060D7"/>
<path d="M447.88 16.9602C448.216 16.9576 448.538 16.8229 448.775 16.5853C449.013 16.3477 449.147 16.0262 449.15 15.6902C449.151 15.5226 449.119 15.3563 449.056 15.2011C448.993 15.0458 448.9 14.9047 448.782 14.7857C448.664 14.6667 448.523 14.5722 448.368 14.5078C448.214 14.4433 448.048 14.4102 447.88 14.4102C447.712 14.4102 447.546 14.4433 447.39 14.5076C447.235 14.5719 447.094 14.6662 446.975 14.7851C446.856 14.9039 446.762 15.045 446.698 15.2003C446.633 15.3556 446.6 15.5221 446.6 15.6902C446.603 16.0279 446.739 16.3509 446.979 16.5888C447.218 16.8267 447.542 16.9602 447.88 16.9602Z" fill="#3060D7"/>
<path d="M462.28 16.9602C462.616 16.9576 462.938 16.8229 463.175 16.5853C463.413 16.3477 463.547 16.0262 463.55 15.6902C463.551 15.5226 463.519 15.3563 463.456 15.2011C463.393 15.0458 463.3 14.9047 463.182 14.7857C463.064 14.6667 462.923 14.5722 462.768 14.5078C462.614 14.4433 462.448 14.4102 462.28 14.4102C462.112 14.4102 461.945 14.4433 461.79 14.5076C461.635 14.5719 461.494 14.6662 461.375 14.7851C461.256 14.9039 461.162 15.045 461.097 15.2003C461.033 15.3556 461 15.5221 461 15.6902C461.003 16.0279 461.139 16.3509 461.378 16.5888C461.618 16.8267 461.942 16.9602 462.28 16.9602Z" fill="#3060D7"/>
<path d="M476.68 16.96C477.387 16.96 477.96 16.3869 477.96 15.68C477.96 14.973 477.387 14.3999 476.68 14.3999C475.973 14.3999 475.4 14.973 475.4 15.68C475.4 16.3869 475.973 16.96 476.68 16.96Z" fill="#3060D7"/>
<path d="M491.08 16.9602C491.416 16.9576 491.737 16.8229 491.975 16.5853C492.213 16.3477 492.347 16.0262 492.35 15.6902C492.351 15.5226 492.319 15.3563 492.256 15.2011C492.193 15.0458 492.1 14.9047 491.981 14.7857C491.863 14.6667 491.723 14.5722 491.568 14.5078C491.413 14.4433 491.247 14.4102 491.08 14.4102C490.74 14.4102 490.415 14.545 490.175 14.7851C489.935 15.0251 489.8 15.3507 489.8 15.6902C489.802 16.0279 489.938 16.3509 490.178 16.5888C490.418 16.8267 490.742 16.9602 491.08 16.9602Z" fill="#3060D7"/>
<path d="M505.47 16.96C505.808 16.96 506.132 16.8265 506.372 16.5886C506.612 16.3507 506.748 16.0277 506.75 15.69C506.753 15.5207 506.722 15.3525 506.658 15.1955C506.595 15.0384 506.501 14.8956 506.382 14.7754C506.263 14.6552 506.121 14.5601 505.964 14.4956C505.807 14.4311 505.64 14.3986 505.47 14.3999C505.302 14.4013 505.136 14.4357 504.981 14.5012C504.826 14.5667 504.686 14.6621 504.568 14.7819C504.45 14.9017 504.357 15.0435 504.294 15.1993C504.231 15.3551 504.199 15.5219 504.2 15.69C504.203 16.026 504.337 16.3475 504.575 16.5851C504.813 16.8227 505.134 16.9573 505.47 16.96V16.96Z" fill="#3060D7"/>
<path d="M519.88 16.9602C520.216 16.9576 520.538 16.8229 520.775 16.5853C521.013 16.3477 521.147 16.0262 521.15 15.6902C521.151 15.5226 521.119 15.3563 521.056 15.2011C520.993 15.0458 520.9 14.9047 520.782 14.7857C520.664 14.6667 520.523 14.5722 520.368 14.5078C520.214 14.4433 520.048 14.4102 519.88 14.4102C519.541 14.4102 519.215 14.545 518.975 14.7851C518.735 15.0251 518.6 15.3507 518.6 15.6902C518.603 16.0279 518.739 16.3509 518.979 16.5888C519.218 16.8267 519.542 16.9602 519.88 16.9602V16.9602Z" fill="#3060D7"/>
<path d="M534.28 16.9602C534.616 16.9576 534.938 16.8229 535.175 16.5853C535.413 16.3477 535.547 16.0262 535.55 15.6902C535.551 15.5226 535.519 15.3563 535.456 15.2011C535.393 15.0458 535.3 14.9047 535.182 14.7857C535.064 14.6667 534.923 14.5722 534.768 14.5078C534.614 14.4433 534.448 14.4102 534.28 14.4102C533.941 14.4102 533.615 14.545 533.375 14.7851C533.135 15.0251 533 15.3507 533 15.6902C533.003 16.0279 533.139 16.3509 533.378 16.5888C533.618 16.8267 533.942 16.9602 534.28 16.9602V16.9602Z" fill="#3060D7"/>
<path d="M548.68 16.96C549.387 16.96 549.96 16.3869 549.96 15.68C549.96 14.973 549.387 14.3999 548.68 14.3999C547.973 14.3999 547.4 14.973 547.4 15.68C547.4 16.3869 547.973 16.96 548.68 16.96Z" fill="#3060D7"/>
<path d="M563.08 16.9602C563.416 16.9576 563.737 16.8229 563.975 16.5853C564.213 16.3477 564.347 16.0262 564.35 15.6902C564.351 15.5226 564.319 15.3563 564.256 15.2011C564.193 15.0458 564.099 14.9047 563.981 14.7857C563.863 14.6667 563.723 14.5722 563.568 14.5078C563.413 14.4433 563.247 14.4102 563.08 14.4102C562.74 14.4102 562.415 14.545 562.175 14.7851C561.935 15.0251 561.8 15.3507 561.8 15.6902C561.802 16.0279 561.938 16.3509 562.178 16.5888C562.418 16.8267 562.742 16.9602 563.08 16.9602Z" fill="#3060D7"/>
<path d="M577.47 16.96C577.808 16.96 578.132 16.8265 578.372 16.5886C578.611 16.3507 578.748 16.0277 578.75 15.69C578.753 15.5207 578.722 15.3525 578.658 15.1955C578.595 15.0384 578.501 14.8956 578.382 14.7754C578.263 14.6552 578.12 14.5601 577.964 14.4956C577.807 14.4311 577.64 14.3986 577.47 14.3999C577.302 14.4013 577.136 14.4357 576.981 14.5012C576.826 14.5667 576.686 14.6621 576.568 14.7819C576.45 14.9017 576.357 15.0435 576.294 15.1993C576.231 15.3551 576.199 15.5219 576.2 15.69C576.203 16.026 576.337 16.3475 576.575 16.5851C576.813 16.8227 577.134 16.9573 577.47 16.96V16.96Z" fill="#3060D7"/>
<path d="M591.88 16.9602C592.216 16.9576 592.538 16.8229 592.775 16.5853C593.013 16.3477 593.147 16.0262 593.15 15.6902C593.151 15.5226 593.12 15.3563 593.056 15.2011C592.993 15.0458 592.9 14.9047 592.782 14.7857C592.664 14.6667 592.523 14.5722 592.368 14.5078C592.214 14.4433 592.048 14.4102 591.88 14.4102C591.712 14.4102 591.546 14.4433 591.39 14.5076C591.235 14.5719 591.094 14.6662 590.975 14.7851C590.856 14.9039 590.762 15.045 590.698 15.2003C590.633 15.3556 590.6 15.5221 590.6 15.6902C590.603 16.0279 590.739 16.3509 590.979 16.5888C591.218 16.8267 591.542 16.9602 591.88 16.9602Z" fill="#3060D7"/>
<path d="M606.28 16.9602C606.616 16.9576 606.938 16.8229 607.175 16.5853C607.413 16.3477 607.547 16.0262 607.55 15.6902C607.551 15.5226 607.519 15.3563 607.456 15.2011C607.393 15.0458 607.3 14.9047 607.182 14.7857C607.064 14.6667 606.923 14.5722 606.768 14.5078C606.614 14.4433 606.448 14.4102 606.28 14.4102C605.941 14.4102 605.615 14.545 605.375 14.7851C605.135 15.0251 605 15.3507 605 15.6902C605.003 16.0279 605.139 16.3509 605.378 16.5888C605.618 16.8267 605.942 16.9602 606.28 16.9602Z" fill="#3060D7"/>
<path d="M620.68 16.96C621.387 16.96 621.96 16.3869 621.96 15.68C621.96 14.973 621.387 14.3999 620.68 14.3999C619.973 14.3999 619.4 14.973 619.4 15.68C619.4 16.3869 619.973 16.96 620.68 16.96Z" fill="#3060D7"/>
<path d="M959.47 2.55994C959.808 2.5573 960.131 2.42128 960.369 2.18152C960.607 1.94177 960.74 1.61771 960.74 1.27997C960.741 1.11235 960.71 0.946137 960.646 0.790901C960.583 0.635665 960.49 0.494482 960.372 0.375493C960.254 0.256505 960.113 0.162064 959.958 0.0976176C959.804 0.0331713 959.638 -5.19568e-06 959.47 6.10309e-10C959.131 6.10307e-10 958.805 0.134853 958.565 0.374893C958.325 0.614934 958.19 0.940499 958.19 1.27997C958.19 1.61944 958.325 1.945 958.565 2.18504C958.805 2.42508 959.131 2.55994 959.47 2.55994V2.55994Z" fill="#3060D7"/>
<path d="M973.88 2.55994C974.218 2.5573 974.541 2.42128 974.779 2.18152C975.017 1.94177 975.15 1.61771 975.15 1.27997C975.151 1.11235 975.12 0.946137 975.056 0.790901C974.993 0.635665 974.9 0.494482 974.782 0.375493C974.664 0.256505 974.523 0.162064 974.368 0.0976176C974.214 0.0331713 974.048 -5.19568e-06 973.88 6.10309e-10C973.541 6.10309e-10 973.215 0.134853 972.975 0.374893C972.735 0.614934 972.6 0.940499 972.6 1.27997C972.6 1.61944 972.735 1.945 972.975 2.18504C973.215 2.42508 973.541 2.55994 973.88 2.55994V2.55994Z" fill="#3060D7"/>
<path d="M988.28 2.55994C988.618 2.5573 988.941 2.42128 989.179 2.18152C989.417 1.94177 989.55 1.61771 989.55 1.27997C989.552 1.11235 989.52 0.946137 989.456 0.790901C989.393 0.635665 989.3 0.494482 989.182 0.375493C989.064 0.256505 988.923 0.162064 988.768 0.0976176C988.614 0.0331713 988.448 -5.19568e-06 988.28 6.10309e-10C987.941 6.10309e-10 987.615 0.134853 987.375 0.374893C987.135 0.614934 987 0.940499 987 1.27997C987 1.61944 987.135 1.945 987.375 2.18504C987.615 2.42508 987.941 2.55994 988.28 2.55994V2.55994Z" fill="#3060D7"/>
<path d="M1002.68 2.55994C1003.39 2.55994 1003.96 1.98688 1003.96 1.27997C1003.96 0.573061 1003.39 0 1002.68 0C1001.97 0 1001.4 0.573061 1001.4 1.27997C1001.4 1.98688 1001.97 2.55994 1002.68 2.55994Z" fill="#3060D7"/>
<path d="M1017.08 2.55994C1017.42 2.5573 1017.74 2.42128 1017.98 2.18152C1018.22 1.94177 1018.35 1.61771 1018.35 1.27997C1018.35 1.11235 1018.32 0.946137 1018.26 0.790901C1018.19 0.635665 1018.1 0.494482 1017.98 0.375493C1017.86 0.256505 1017.72 0.162064 1017.57 0.0976176C1017.41 0.0331713 1017.25 -5.19568e-06 1017.08 6.10309e-10C1016.74 6.10307e-10 1016.42 0.134853 1016.18 0.374893C1015.94 0.614934 1015.8 0.940499 1015.8 1.27997C1015.8 1.61944 1015.94 1.945 1016.18 2.18504C1016.42 2.42508 1016.74 2.55994 1017.08 2.55994V2.55994Z" fill="#3060D7"/>
<path d="M1031.47 2.55994C1031.81 2.5573 1032.13 2.42128 1032.37 2.18152C1032.61 1.94177 1032.74 1.61771 1032.74 1.27997C1032.74 1.11235 1032.71 0.946137 1032.65 0.790901C1032.58 0.635665 1032.49 0.494482 1032.37 0.375493C1032.25 0.256505 1032.11 0.162064 1031.96 0.0976176C1031.8 0.0331713 1031.64 -5.19568e-06 1031.47 6.10309e-10C1031.13 6.10307e-10 1030.8 0.134853 1030.56 0.374893C1030.32 0.614934 1030.19 0.940499 1030.19 1.27997C1030.19 1.61944 1030.32 1.945 1030.56 2.18504C1030.8 2.42508 1031.13 2.55994 1031.47 2.55994V2.55994Z" fill="#3060D7"/>
<path d="M1045.88 2.55994C1046.22 2.5573 1046.54 2.42128 1046.78 2.18152C1047.02 1.94177 1047.15 1.61771 1047.15 1.27997C1047.15 1.11235 1047.12 0.946137 1047.06 0.790901C1046.99 0.635665 1046.9 0.494482 1046.78 0.375493C1046.66 0.256505 1046.52 0.162064 1046.37 0.0976176C1046.21 0.0331713 1046.05 -5.19568e-06 1045.88 6.10309e-10C1045.54 6.10307e-10 1045.22 0.134853 1044.98 0.374893C1044.73 0.614934 1044.6 0.940499 1044.6 1.27997C1044.6 1.61944 1044.73 1.945 1044.98 2.18504C1045.22 2.42508 1045.54 2.55994 1045.88 2.55994V2.55994Z" fill="#3060D7"/>
<path d="M1060.28 2.55994C1060.62 2.5573 1060.94 2.42128 1061.18 2.18152C1061.42 1.94177 1061.55 1.61771 1061.55 1.27997C1061.55 1.11235 1061.52 0.946137 1061.46 0.790901C1061.39 0.635665 1061.3 0.494482 1061.18 0.375493C1061.06 0.256505 1060.92 0.162064 1060.77 0.0976176C1060.61 0.0331713 1060.45 -5.19568e-06 1060.28 6.10309e-10C1059.94 6.10307e-10 1059.61 0.134853 1059.37 0.374893C1059.13 0.614934 1059 0.940499 1059 1.27997C1059 1.61944 1059.13 1.945 1059.37 2.18504C1059.61 2.42508 1059.94 2.55994 1060.28 2.55994V2.55994Z" fill="#3060D7"/>
<path d="M1074.68 2.55994C1075.39 2.55994 1075.96 1.98688 1075.96 1.27997C1075.96 0.573061 1075.39 0 1074.68 0C1073.97 0 1073.4 0.573061 1073.4 1.27997C1073.4 1.98688 1073.97 2.55994 1074.68 2.55994Z" fill="#3060D7"/>
<path d="M1089.08 2.55994C1089.42 2.5573 1089.74 2.42128 1089.98 2.18152C1090.22 1.94177 1090.35 1.61771 1090.35 1.27997C1090.35 1.11235 1090.32 0.946137 1090.26 0.790901C1090.19 0.635665 1090.1 0.494482 1089.98 0.375493C1089.86 0.256505 1089.72 0.162064 1089.57 0.0976176C1089.41 0.0331713 1089.25 -5.19568e-06 1089.08 6.10309e-10C1088.74 6.10307e-10 1088.42 0.134853 1088.18 0.374893C1087.94 0.614934 1087.8 0.940499 1087.8 1.27997C1087.8 1.61944 1087.94 1.945 1088.18 2.18504C1088.42 2.42508 1088.74 2.55994 1089.08 2.55994V2.55994Z" fill="#3060D7"/>
<path d="M1103.47 2.55994C1103.81 2.5573 1104.13 2.42128 1104.37 2.18152C1104.61 1.94177 1104.74 1.61771 1104.74 1.27997C1104.74 1.11235 1104.71 0.946137 1104.65 0.790901C1104.58 0.635665 1104.49 0.494482 1104.37 0.375493C1104.25 0.256505 1104.11 0.162064 1103.96 0.0976176C1103.8 0.0331713 1103.64 -5.19568e-06 1103.47 6.10309e-10C1103.13 6.10307e-10 1102.8 0.134853 1102.56 0.374893C1102.32 0.614934 1102.19 0.940499 1102.19 1.27997C1102.19 1.61944 1102.32 1.945 1102.56 2.18504C1102.8 2.42508 1103.13 2.55994 1103.47 2.55994V2.55994Z" fill="#3060D7"/>
<path d="M1117.88 2.55994C1118.22 2.5573 1118.54 2.42128 1118.78 2.18152C1119.02 1.94177 1119.15 1.61771 1119.15 1.27997C1119.15 1.11235 1119.12 0.946137 1119.06 0.790901C1118.99 0.635665 1118.9 0.494482 1118.78 0.375493C1118.66 0.256505 1118.52 0.162064 1118.37 0.0976176C1118.21 0.0331713 1118.05 -5.19568e-06 1117.88 6.10309e-10C1117.54 6.10307e-10 1117.22 0.134853 1116.97 0.374893C1116.73 0.614934 1116.6 0.940499 1116.6 1.27997C1116.6 1.61944 1116.73 1.945 1116.97 2.18504C1117.22 2.42508 1117.54 2.55994 1117.88 2.55994V2.55994Z" fill="#3060D7"/>
<path d="M1132.28 2.55994C1132.62 2.5573 1132.94 2.42128 1133.18 2.18152C1133.42 1.94177 1133.55 1.61771 1133.55 1.27997C1133.55 1.11235 1133.52 0.946137 1133.46 0.790901C1133.39 0.635665 1133.3 0.494482 1133.18 0.375493C1133.06 0.256505 1132.92 0.162064 1132.77 0.0976176C1132.61 0.0331713 1132.45 -5.19568e-06 1132.28 6.10309e-10C1131.94 6.10307e-10 1131.61 0.134853 1131.37 0.374893C1131.13 0.614934 1131 0.940499 1131 1.27997C1131 1.61944 1131.13 1.945 1131.37 2.18504C1131.61 2.42508 1131.94 2.55994 1132.28 2.55994V2.55994Z" fill="#3060D7"/>
<path d="M1146.68 2.55994C1147.39 2.55994 1147.96 1.98688 1147.96 1.27997C1147.96 0.573061 1147.39 0 1146.68 0C1145.97 0 1145.4 0.573061 1145.4 1.27997C1145.4 1.98688 1145.97 2.55994 1146.68 2.55994Z" fill="#3060D7"/>
<path d="M1161.08 2.55994C1161.42 2.5573 1161.74 2.42128 1161.98 2.18152C1162.22 1.94177 1162.35 1.61771 1162.35 1.27997C1162.35 1.11235 1162.32 0.946137 1162.26 0.790901C1162.19 0.635665 1162.1 0.494482 1161.98 0.375493C1161.86 0.256505 1161.72 0.162064 1161.57 0.0976176C1161.41 0.0331713 1161.25 -5.19568e-06 1161.08 6.10309e-10C1160.74 6.10307e-10 1160.42 0.134853 1160.18 0.374893C1159.94 0.614934 1159.8 0.940499 1159.8 1.27997C1159.8 1.61944 1159.94 1.945 1160.18 2.18504C1160.42 2.42508 1160.74 2.55994 1161.08 2.55994V2.55994Z" fill="#3060D7"/>
<path d="M1175.47 2.55994C1175.81 2.5573 1176.13 2.42128 1176.37 2.18152C1176.61 1.94177 1176.74 1.61771 1176.74 1.27997C1176.74 1.11235 1176.71 0.946137 1176.65 0.790901C1176.58 0.635665 1176.49 0.494482 1176.37 0.375493C1176.25 0.256505 1176.11 0.162064 1175.96 0.0976176C1175.8 0.0331713 1175.64 -5.19568e-06 1175.47 6.10309e-10C1175.13 6.10307e-10 1174.8 0.134853 1174.56 0.374893C1174.32 0.614934 1174.19 0.940499 1174.19 1.27997C1174.19 1.61944 1174.32 1.945 1174.56 2.18504C1174.8 2.42508 1175.13 2.55994 1175.47 2.55994V2.55994Z" fill="#3060D7"/>
<path d="M1189.88 2.55994C1190.22 2.5573 1190.54 2.42128 1190.78 2.18152C1191.02 1.94177 1191.15 1.61771 1191.15 1.27997C1191.15 1.11235 1191.12 0.946137 1191.06 0.790901C1190.99 0.635665 1190.9 0.494482 1190.78 0.375493C1190.66 0.256505 1190.52 0.162064 1190.37 0.0976176C1190.21 0.0331713 1190.05 -5.19568e-06 1189.88 6.10309e-10C1189.54 6.10307e-10 1189.22 0.134853 1188.97 0.374893C1188.73 0.614934 1188.6 0.940499 1188.6 1.27997C1188.6 1.61944 1188.73 1.945 1188.97 2.18504C1189.22 2.42508 1189.54 2.55994 1189.88 2.55994V2.55994Z" fill="#3060D7"/>
<path d="M1204.28 2.55994C1204.62 2.5573 1204.94 2.42128 1205.18 2.18152C1205.42 1.94177 1205.55 1.61771 1205.55 1.27997C1205.55 1.11235 1205.52 0.946137 1205.46 0.790901C1205.39 0.635665 1205.3 0.494482 1205.18 0.375493C1205.06 0.256505 1204.92 0.162064 1204.77 0.0976176C1204.61 0.0331713 1204.45 -5.19568e-06 1204.28 6.10309e-10C1203.94 6.10307e-10 1203.61 0.134853 1203.37 0.374893C1203.13 0.614934 1203 0.940499 1203 1.27997C1203 1.61944 1203.13 1.945 1203.37 2.18504C1203.61 2.42508 1203.94 2.55994 1204.28 2.55994V2.55994Z" fill="#3060D7"/>
<path d="M1218.68 2.55994C1219.39 2.55994 1219.96 1.98688 1219.96 1.27997C1219.96 0.573061 1219.39 0 1218.68 0C1217.97 0 1217.4 0.573061 1217.4 1.27997C1217.4 1.98688 1217.97 2.55994 1218.68 2.55994Z" fill="#3060D7"/>
<path d="M1233.08 2.55994C1233.42 2.5573 1233.74 2.42128 1233.98 2.18152C1234.22 1.94177 1234.35 1.61771 1234.35 1.27997C1234.35 1.11235 1234.32 0.946137 1234.26 0.790901C1234.19 0.635665 1234.1 0.494482 1233.98 0.375493C1233.86 0.256505 1233.72 0.162064 1233.57 0.0976176C1233.41 0.0331713 1233.25 -5.19568e-06 1233.08 6.10309e-10C1232.74 6.10307e-10 1232.42 0.134853 1232.18 0.374893C1231.94 0.614934 1231.8 0.940499 1231.8 1.27997C1231.8 1.61944 1231.94 1.945 1232.18 2.18504C1232.42 2.42508 1232.74 2.55994 1233.08 2.55994V2.55994Z" fill="#3060D7"/>
<path d="M1247.47 2.55994C1247.81 2.5573 1248.13 2.42128 1248.37 2.18152C1248.61 1.94177 1248.74 1.61771 1248.74 1.27997C1248.74 1.11235 1248.71 0.946137 1248.65 0.790901C1248.58 0.635665 1248.49 0.494482 1248.37 0.375493C1248.25 0.256505 1248.11 0.162064 1247.96 0.0976176C1247.8 0.0331713 1247.64 -5.19568e-06 1247.47 6.10309e-10C1247.13 6.10307e-10 1246.8 0.134853 1246.56 0.374893C1246.32 0.614934 1246.19 0.940499 1246.19 1.27997C1246.19 1.61944 1246.32 1.945 1246.56 2.18504C1246.8 2.42508 1247.13 2.55994 1247.47 2.55994V2.55994Z" fill="#3060D7"/>
<path d="M1261.88 2.55994C1262.22 2.5573 1262.54 2.42128 1262.78 2.18152C1263.02 1.94177 1263.15 1.61771 1263.15 1.27997C1263.15 1.11235 1263.12 0.946137 1263.06 0.790901C1262.99 0.635665 1262.9 0.494482 1262.78 0.375493C1262.66 0.256505 1262.52 0.162064 1262.37 0.0976176C1262.21 0.0331713 1262.05 -5.19568e-06 1261.88 6.10309e-10C1261.54 6.10307e-10 1261.21 0.134853 1260.97 0.374893C1260.73 0.614934 1260.6 0.940499 1260.6 1.27997C1260.6 1.61944 1260.73 1.945 1260.97 2.18504C1261.21 2.42508 1261.54 2.55994 1261.88 2.55994V2.55994Z" fill="#3060D7"/>
<path d="M952.28 16.9602C952.616 16.9576 952.938 16.8229 953.175 16.5853C953.413 16.3477 953.548 16.0262 953.55 15.6902C953.552 15.5226 953.52 15.3563 953.456 15.2011C953.393 15.0458 953.3 14.9047 953.182 14.7857C953.064 14.6667 952.923 14.5722 952.768 14.5078C952.614 14.4433 952.448 14.4102 952.28 14.4102C951.941 14.4102 951.615 14.545 951.375 14.7851C951.135 15.0251 951 15.3507 951 15.6902C951.003 16.0279 951.139 16.3509 951.378 16.5888C951.618 16.8267 951.942 16.9602 952.28 16.9602Z" fill="#3060D7"/>
<path d="M966.68 16.96C967.387 16.96 967.96 16.3869 967.96 15.68C967.96 14.973 967.387 14.3999 966.68 14.3999C965.973 14.3999 965.4 14.973 965.4 15.68C965.4 16.3869 965.973 16.96 966.68 16.96Z" fill="#3060D7"/>
<path d="M981.08 16.9602C981.416 16.9576 981.738 16.8229 981.975 16.5853C982.213 16.3477 982.348 16.0262 982.35 15.6902C982.352 15.5226 982.32 15.3563 982.257 15.2011C982.193 15.0458 982.1 14.9047 981.982 14.7857C981.864 14.6667 981.723 14.5722 981.569 14.5078C981.414 14.4433 981.248 14.4102 981.08 14.4102C980.912 14.4102 980.746 14.4433 980.59 14.5076C980.435 14.5719 980.294 14.6662 980.175 14.7851C980.056 14.9039 979.962 15.045 979.898 15.2003C979.833 15.3556 979.8 15.5221 979.8 15.6902C979.803 16.0279 979.939 16.3509 980.179 16.5888C980.418 16.8267 980.743 16.9602 981.08 16.9602Z" fill="#3060D7"/>
<path d="M995.47 16.96C995.808 16.96 996.132 16.8265 996.372 16.5886C996.612 16.3507 996.748 16.0277 996.75 15.69C996.753 15.5207 996.722 15.3525 996.658 15.1955C996.595 15.0384 996.501 14.8956 996.382 14.7754C996.263 14.6552 996.121 14.5601 995.964 14.4956C995.807 14.4311 995.64 14.3986 995.47 14.3999C995.302 14.4013 995.136 14.4357 994.981 14.5012C994.826 14.5667 994.686 14.6621 994.568 14.7819C994.45 14.9017 994.357 15.0435 994.294 15.1993C994.231 15.3551 994.199 15.5219 994.2 15.69C994.203 16.026 994.337 16.3475 994.575 16.5851C994.813 16.8227 995.134 16.9573 995.47 16.96V16.96Z" fill="#3060D7"/>
<path d="M1009.88 16.9602C1010.22 16.9576 1010.54 16.8229 1010.78 16.5853C1011.01 16.3477 1011.15 16.0262 1011.15 15.6902C1011.15 15.5226 1011.12 15.3563 1011.06 15.2011C1010.99 15.0458 1010.9 14.9047 1010.78 14.7857C1010.66 14.6667 1010.52 14.5722 1010.37 14.5078C1010.21 14.4433 1010.05 14.4102 1009.88 14.4102C1009.54 14.4102 1009.22 14.545 1008.97 14.7851C1008.73 15.0251 1008.6 15.3507 1008.6 15.6902C1008.6 16.0279 1008.74 16.3509 1008.98 16.5888C1009.22 16.8267 1009.54 16.9602 1009.88 16.9602V16.9602Z" fill="#3060D7"/>
<path d="M1024.28 16.9602C1024.62 16.9576 1024.94 16.8229 1025.18 16.5853C1025.41 16.3477 1025.55 16.0262 1025.55 15.6902C1025.55 15.5226 1025.52 15.3563 1025.46 15.2011C1025.39 15.0458 1025.3 14.9047 1025.18 14.7857C1025.06 14.6667 1024.92 14.5722 1024.77 14.5078C1024.61 14.4433 1024.45 14.4102 1024.28 14.4102C1023.94 14.4102 1023.61 14.545 1023.37 14.7851C1023.13 15.0251 1023 15.3507 1023 15.6902C1023 16.0279 1023.14 16.3509 1023.38 16.5888C1023.62 16.8267 1023.94 16.9602 1024.28 16.9602V16.9602Z" fill="#3060D7"/>
<path d="M1038.68 16.96C1039.39 16.96 1039.96 16.3869 1039.96 15.68C1039.96 14.973 1039.39 14.3999 1038.68 14.3999C1037.97 14.3999 1037.4 14.973 1037.4 15.68C1037.4 16.3869 1037.97 16.96 1038.68 16.96Z" fill="#3060D7"/>
<path d="M1053.08 16.9602C1053.42 16.9576 1053.74 16.8229 1053.98 16.5853C1054.21 16.3477 1054.35 16.0262 1054.35 15.6902C1054.35 15.5226 1054.32 15.3563 1054.26 15.2011C1054.19 15.0458 1054.1 14.9047 1053.98 14.7857C1053.86 14.6667 1053.72 14.5722 1053.57 14.5078C1053.41 14.4433 1053.25 14.4102 1053.08 14.4102C1052.74 14.4102 1052.42 14.545 1052.18 14.7851C1051.94 15.0251 1051.8 15.3507 1051.8 15.6902C1051.8 16.0279 1051.94 16.3509 1052.18 16.5888C1052.42 16.8267 1052.74 16.9602 1053.08 16.9602Z" fill="#3060D7"/>
<path d="M1067.47 16.96C1067.81 16.96 1068.13 16.8265 1068.37 16.5886C1068.61 16.3507 1068.75 16.0277 1068.75 15.69C1068.75 15.5207 1068.72 15.3525 1068.66 15.1955C1068.6 15.0384 1068.5 14.8956 1068.38 14.7754C1068.26 14.6552 1068.12 14.5601 1067.96 14.4956C1067.81 14.4311 1067.64 14.3986 1067.47 14.3999C1067.3 14.4013 1067.14 14.4357 1066.98 14.5012C1066.83 14.5667 1066.69 14.6621 1066.57 14.7819C1066.45 14.9017 1066.36 15.0435 1066.29 15.1993C1066.23 15.3551 1066.2 15.5219 1066.2 15.69C1066.2 16.026 1066.34 16.3475 1066.58 16.5851C1066.81 16.8227 1067.13 16.9573 1067.47 16.96V16.96Z" fill="#3060D7"/>
<path d="M1081.88 16.9602C1082.22 16.9576 1082.54 16.8229 1082.78 16.5853C1083.01 16.3477 1083.15 16.0262 1083.15 15.6902C1083.15 15.5226 1083.12 15.3563 1083.06 15.2011C1082.99 15.0458 1082.9 14.9047 1082.78 14.7857C1082.66 14.6667 1082.52 14.5722 1082.37 14.5078C1082.21 14.4433 1082.05 14.4102 1081.88 14.4102C1081.71 14.4102 1081.55 14.4433 1081.39 14.5076C1081.23 14.5719 1081.09 14.6662 1080.98 14.7851C1080.86 14.9039 1080.76 15.045 1080.7 15.2003C1080.63 15.3556 1080.6 15.5221 1080.6 15.6902C1080.6 16.0279 1080.74 16.3509 1080.98 16.5888C1081.22 16.8267 1081.54 16.9602 1081.88 16.9602Z" fill="#3060D7"/>
<path d="M1096.28 16.9602C1096.62 16.9576 1096.94 16.8229 1097.18 16.5853C1097.41 16.3477 1097.55 16.0262 1097.55 15.6902C1097.55 15.5226 1097.52 15.3563 1097.46 15.2011C1097.39 15.0458 1097.3 14.9047 1097.18 14.7857C1097.06 14.6667 1096.92 14.5722 1096.77 14.5078C1096.61 14.4433 1096.45 14.4102 1096.28 14.4102C1096.11 14.4102 1095.95 14.4433 1095.79 14.5076C1095.63 14.5719 1095.49 14.6662 1095.37 14.7851C1095.26 14.9039 1095.16 15.045 1095.1 15.2003C1095.03 15.3556 1095 15.5221 1095 15.6902C1095 16.0279 1095.14 16.3509 1095.38 16.5888C1095.62 16.8267 1095.94 16.9602 1096.28 16.9602Z" fill="#3060D7"/>
<path d="M1110.68 16.96C1111.39 16.96 1111.96 16.3869 1111.96 15.68C1111.96 14.973 1111.39 14.3999 1110.68 14.3999C1109.97 14.3999 1109.4 14.973 1109.4 15.68C1109.4 16.3869 1109.97 16.96 1110.68 16.96Z" fill="#3060D7"/>
<path d="M1125.08 16.9602C1125.42 16.9576 1125.74 16.8229 1125.98 16.5853C1126.21 16.3477 1126.35 16.0262 1126.35 15.6902C1126.35 15.5226 1126.32 15.3563 1126.26 15.2011C1126.19 15.0458 1126.1 14.9047 1125.98 14.7857C1125.86 14.6667 1125.72 14.5722 1125.57 14.5078C1125.41 14.4433 1125.25 14.4102 1125.08 14.4102C1124.74 14.4102 1124.42 14.545 1124.18 14.7851C1123.94 15.0251 1123.8 15.3507 1123.8 15.6902C1123.8 16.0279 1123.94 16.3509 1124.18 16.5888C1124.42 16.8267 1124.74 16.9602 1125.08 16.9602Z" fill="#3060D7"/>
<path d="M1139.47 16.96C1139.81 16.96 1140.13 16.8265 1140.37 16.5886C1140.61 16.3507 1140.75 16.0277 1140.75 15.69C1140.75 15.5207 1140.72 15.3525 1140.66 15.1955C1140.6 15.0384 1140.5 14.8956 1140.38 14.7754C1140.26 14.6552 1140.12 14.5601 1139.96 14.4956C1139.81 14.4311 1139.64 14.3986 1139.47 14.3999C1139.3 14.4013 1139.14 14.4357 1138.98 14.5012C1138.83 14.5667 1138.69 14.6621 1138.57 14.7819C1138.45 14.9017 1138.36 15.0435 1138.29 15.1993C1138.23 15.3551 1138.2 15.5219 1138.2 15.69C1138.2 16.026 1138.34 16.3475 1138.58 16.5851C1138.81 16.8227 1139.13 16.9573 1139.47 16.96V16.96Z" fill="#3060D7"/>
<path d="M1153.88 16.9602C1154.22 16.9576 1154.54 16.8229 1154.78 16.5853C1155.01 16.3477 1155.15 16.0262 1155.15 15.6902C1155.15 15.5226 1155.12 15.3563 1155.06 15.2011C1154.99 15.0458 1154.9 14.9047 1154.78 14.7857C1154.66 14.6667 1154.52 14.5722 1154.37 14.5078C1154.21 14.4433 1154.05 14.4102 1153.88 14.4102C1153.54 14.4102 1153.22 14.545 1152.97 14.7851C1152.73 15.0251 1152.6 15.3507 1152.6 15.6902C1152.6 16.0279 1152.74 16.3509 1152.98 16.5888C1153.22 16.8267 1153.54 16.9602 1153.88 16.9602V16.9602Z" fill="#3060D7"/>
<path d="M1168.28 16.9602C1168.62 16.9576 1168.94 16.8229 1169.18 16.5853C1169.41 16.3477 1169.55 16.0262 1169.55 15.6902C1169.55 15.5226 1169.52 15.3563 1169.46 15.2011C1169.39 15.0458 1169.3 14.9047 1169.18 14.7857C1169.06 14.6667 1168.92 14.5722 1168.77 14.5078C1168.61 14.4433 1168.45 14.4102 1168.28 14.4102C1167.94 14.4102 1167.61 14.545 1167.37 14.7851C1167.13 15.0251 1167 15.3507 1167 15.6902C1167 16.0279 1167.14 16.3509 1167.38 16.5888C1167.62 16.8267 1167.94 16.9602 1168.28 16.9602V16.9602Z" fill="#3060D7"/>
<path d="M1182.68 16.96C1183.39 16.96 1183.96 16.3869 1183.96 15.68C1183.96 14.973 1183.39 14.3999 1182.68 14.3999C1181.97 14.3999 1181.4 14.973 1181.4 15.68C1181.4 16.3869 1181.97 16.96 1182.68 16.96Z" fill="#3060D7"/>
<path d="M1197.08 16.9602C1197.42 16.9576 1197.74 16.8229 1197.98 16.5853C1198.21 16.3477 1198.35 16.0262 1198.35 15.6902C1198.35 15.5226 1198.32 15.3563 1198.26 15.2011C1198.19 15.0458 1198.1 14.9047 1197.98 14.7857C1197.86 14.6667 1197.72 14.5722 1197.57 14.5078C1197.41 14.4433 1197.25 14.4102 1197.08 14.4102C1196.74 14.4102 1196.42 14.545 1196.18 14.7851C1195.94 15.0251 1195.8 15.3507 1195.8 15.6902C1195.8 16.0279 1195.94 16.3509 1196.18 16.5888C1196.42 16.8267 1196.74 16.9602 1197.08 16.9602Z" fill="#3060D7"/>
<path d="M1211.47 16.96C1211.81 16.96 1212.13 16.8265 1212.37 16.5886C1212.61 16.3507 1212.75 16.0277 1212.75 15.69C1212.75 15.5207 1212.72 15.3525 1212.66 15.1955C1212.6 15.0384 1212.5 14.8956 1212.38 14.7754C1212.26 14.6552 1212.12 14.5601 1211.96 14.4956C1211.81 14.4311 1211.64 14.3986 1211.47 14.3999C1211.3 14.4013 1211.14 14.4357 1210.98 14.5012C1210.83 14.5667 1210.69 14.6621 1210.57 14.7819C1210.45 14.9017 1210.36 15.0435 1210.29 15.1993C1210.23 15.3551 1210.2 15.5219 1210.2 15.69C1210.2 16.026 1210.34 16.3475 1210.58 16.5851C1210.81 16.8227 1211.13 16.9573 1211.47 16.96V16.96Z" fill="#3060D7"/>
<path d="M1225.88 16.9602C1226.22 16.9576 1226.54 16.8229 1226.77 16.5853C1227.01 16.3477 1227.15 16.0262 1227.15 15.6902C1227.15 15.5226 1227.12 15.3563 1227.06 15.2011C1226.99 15.0458 1226.9 14.9047 1226.78 14.7857C1226.66 14.6667 1226.52 14.5722 1226.37 14.5078C1226.21 14.4433 1226.05 14.4102 1225.88 14.4102C1225.71 14.4102 1225.55 14.4433 1225.39 14.5076C1225.23 14.5719 1225.09 14.6662 1224.97 14.7851C1224.86 14.9039 1224.76 15.045 1224.7 15.2003C1224.63 15.3556 1224.6 15.5221 1224.6 15.6902C1224.6 16.0279 1224.74 16.3509 1224.98 16.5888C1225.22 16.8267 1225.54 16.9602 1225.88 16.9602Z" fill="#3060D7"/>
<path d="M1240.28 16.9602C1240.62 16.9576 1240.94 16.8229 1241.18 16.5853C1241.41 16.3477 1241.55 16.0262 1241.55 15.6902C1241.55 15.5226 1241.52 15.3563 1241.46 15.2011C1241.39 15.0458 1241.3 14.9047 1241.18 14.7857C1241.06 14.6667 1240.92 14.5722 1240.77 14.5078C1240.61 14.4433 1240.45 14.4102 1240.28 14.4102C1239.94 14.4102 1239.61 14.545 1239.37 14.7851C1239.13 15.0251 1239 15.3507 1239 15.6902C1239 16.0279 1239.14 16.3509 1239.38 16.5888C1239.62 16.8267 1239.94 16.9602 1240.28 16.9602Z" fill="#3060D7"/>
<path d="M1254.68 16.96C1255.39 16.96 1255.96 16.3869 1255.96 15.68C1255.96 14.973 1255.39 14.3999 1254.68 14.3999C1253.97 14.3999 1253.4 14.973 1253.4 15.68C1253.4 16.3869 1253.97 16.96 1254.68 16.96Z" fill="#3060D7"/>
</g>
</svg>
