<svg width="484" height="347" viewBox="0 0 484 347" fill="none" xmlns="http://www.w3.org/2000/svg">
<path d="M458.915 317.52H1" stroke="#E9F4FF" stroke-width="0.98" stroke-linecap="round" stroke-linejoin="round"/>
<path d="M158.376 25.9087H140.698V33.1784H158.376V25.9087Z" stroke="#E9F4FF" stroke-width="0.98" stroke-linecap="round" stroke-linejoin="round"/>
<path d="M123.01 25.9087H140.698V33.1784H123.01" stroke="#E9F4FF" stroke-width="0.98" stroke-linecap="round" stroke-linejoin="round"/>
<path d="M149.532 33.1782H131.854V40.4479H149.532V33.1782Z" stroke="#E9F4FF" stroke-width="0.98" stroke-linecap="round" stroke-linejoin="round"/>
<path d="M144.956 18.6392V25.9088H135.13V18.6392" stroke="#E9F4FF" stroke-width="0.98" stroke-linecap="round" stroke-linejoin="round"/>
<path d="M430.428 145.298H412.75V152.568H430.428V145.298Z" stroke="#E9F4FF" stroke-width="0.98" stroke-linecap="round" stroke-linejoin="round"/>
<path d="M395.073 145.298H412.761V152.568H395.073" stroke="#E9F4FF" stroke-width="0.98" stroke-linecap="round" stroke-linejoin="round"/>
<path d="M421.595 152.568H403.917V159.838H421.595V152.568Z" stroke="#E9F4FF" stroke-width="0.98" stroke-linecap="round" stroke-linejoin="round"/>
<path d="M417.02 138.029V145.298H407.193V138.029" stroke="#E9F4FF" stroke-width="0.98" stroke-linecap="round" stroke-linejoin="round"/>
<path d="M470.813 267.097H443.045C429.826 267.097 429.562 275.751 434.063 292.012C438.565 308.274 441.196 317.53 441.196 317.53" stroke="#E9F4FF" stroke-width="0.98" stroke-linecap="round" stroke-linejoin="round"/>
<path d="M456.971 218.386C456.971 218.386 463.491 197.412 438.818 187.627L442.696 193.354C442.696 193.354 430.344 186.803 418.023 187.627C419.08 215.037 443.393 219.633 456.971 218.386Z" fill="#293E77"/>
<path d="M465.614 267.097C465.614 267.097 473.898 227.378 445.337 206.224" stroke="#E9F4FF" stroke-width="0.98" stroke-linecap="round" stroke-linejoin="round"/>
<path d="M441.46 237.723C438.998 226.491 422.44 233.718 424.015 244.644C425.589 255.569 431.411 260.335 431.411 260.335C431.411 260.335 441.079 255.221 446.891 251.343C452.702 247.465 453.981 231.668 441.46 237.723Z" fill="#293E77"/>
<path d="M466.608 249.578C461.557 233.01 450.272 227.019 440.762 239.709" stroke="#E9F4FF" stroke-width="0.98" stroke-linecap="round" stroke-linejoin="round"/>
<path d="M464.547 274.959H431.601" stroke="#E9F4FF" stroke-width="0.98" stroke-linecap="round" stroke-linejoin="round"/>
<path d="M205.111 139.466C210.574 127.262 268.868 113.515 285.098 125.582L278.6 142.995L219.914 150.582L205.111 139.466Z" fill="#100D14"/>
<path d="M283.862 28.5714C298.517 43.1847 295.348 61.3272 299.574 75.613C303.801 89.8987 314.737 106.108 303.98 119.506C293.224 132.904 268.731 134.838 261.503 119.506C254.276 104.174 240.18 102.23 230.755 108.4C221.33 114.571 204.223 114.92 199.996 101.522C195.77 88.1236 212.507 76.6696 223.243 77.3776C233.978 78.0855 243.086 16.7793 283.862 28.5714Z" fill="#100D14"/>
<path d="M229.783 97.8238L222.556 148.933L265.202 147.877L274.902 91.019L229.783 97.8238Z" fill="#E5987D"/>
<path d="M226.381 121.884L261.017 97.4224L229.783 97.8239L226.381 121.884Z" fill="#DB785E"/>
<path d="M261.683 32.9671C239.906 26.6273 215.329 43.3644 214.272 71.0061C213.215 98.6478 233.661 107.988 254.276 104.142C274.891 100.296 287.243 81.0548 284.792 60.5348C283.006 45.4989 273.137 36.2744 261.683 32.9671Z" fill="#E5987D"/>
<path d="M213.68 53.5291L253.927 60.6403C253.927 60.6403 260.975 47.9606 270.316 45.4775C268.017 48.7967 266.685 52.6891 266.468 56.7209C266.252 60.7527 267.159 64.7653 269.09 68.3115L266.977 78.7934L274.373 81.0863C274.373 81.0863 277.997 73.1403 284.379 73.4996C295.527 72.2633 296.224 45.2979 287.412 32.6077C282.773 25.9192 267.23 13.2184 240.402 19.0404C220.611 23.3304 212.93 39.6026 210.246 47.8444C210.054 48.4436 209.992 49.077 210.065 49.702C210.139 50.327 210.345 50.929 210.67 51.4676C210.995 52.0062 211.432 52.4689 211.952 52.8244C212.471 53.18 213.06 53.4203 213.68 53.5291V53.5291Z" fill="#100D14"/>
<path d="M232.52 86.3276C234.315 87.455 236.42 87.9855 238.534 87.8431C240.649 87.7008 242.664 86.8929 244.291 85.5352" stroke="#100D14" stroke-width="0.98" stroke-linecap="round" stroke-linejoin="round"/>
<path d="M232.467 65.1738L225.377 79.0475L230.744 80.5057" stroke="#100D14" stroke-width="0.98" stroke-linecap="round" stroke-linejoin="round"/>
<path d="M224.825 65.4917L224.578 65.4375C223.871 65.283 223.172 65.7308 223.018 66.4377L222.535 68.6468C222.38 69.3537 222.828 70.052 223.535 70.2066L223.783 70.2607C224.49 70.4152 225.188 69.9674 225.343 69.2605L225.826 67.0514C225.98 66.3445 225.532 65.6462 224.825 65.4917Z" fill="#100D14"/>
<path d="M218.54 78.6879C224.271 78.6879 228.916 74.0423 228.916 68.3117C228.916 62.5811 224.271 57.9355 218.54 57.9355C212.81 57.9355 208.164 62.5811 208.164 68.3117C208.164 74.0423 212.81 78.6879 218.54 78.6879Z" stroke="#100D14" stroke-width="0.98" stroke-linecap="round" stroke-linejoin="round"/>
<path d="M250.303 69.0971L250.055 69.043C249.348 68.8887 248.65 69.3368 248.496 70.0438L248.014 72.253C247.859 72.96 248.307 73.6582 249.014 73.8125L249.262 73.8665C249.969 74.0208 250.667 73.5727 250.822 72.8658L251.304 70.6565C251.458 69.9496 251.01 69.2514 250.303 69.0971Z" fill="#100D14"/>
<path d="M244.227 81.8154C249.958 81.8154 254.603 77.1698 254.603 71.4392C254.603 65.7086 249.958 61.063 244.227 61.063C238.497 61.063 233.851 65.7086 233.851 71.4392C233.851 77.1698 238.497 81.8154 244.227 81.8154Z" stroke="#100D14" stroke-width="0.98" stroke-linecap="round" stroke-linejoin="round"/>
<path d="M279.128 70.7315C286.524 63.5886 294.417 66.7585 293.445 76.2788C292.473 85.7992 284.253 93.5654 275.409 92.1918C270.802 83.0202 279.128 70.7315 279.128 70.7315Z" fill="#E5987D"/>
<path d="M288.849 72.1159C283.83 70.4675 278.537 78.8572 281.316 86.1269" stroke="#100D14" stroke-width="0.98" stroke-linecap="round" stroke-linejoin="round"/>
<path d="M280.576 81.0865C280.576 76.4056 287.92 77.0079 287.465 80.5053" stroke="#100D14" stroke-width="0.98" stroke-linecap="round" stroke-linejoin="round"/>
<path d="M205.111 139.466C205.111 139.466 209.728 146.207 238.353 146.08C266.977 145.954 285.098 125.582 285.098 125.582L281.125 147.708C281.125 147.708 285.003 144.886 310.384 139.328C335.764 133.77 348.983 147.211 349.775 169.316C350.568 191.421 324.131 215.216 324.131 215.216L308.598 317.53H194.27V213.621C194.27 213.621 169.682 194.326 171.795 173.468C173.908 152.61 192.812 143.883 208.83 148.976C207.224 146.165 205.111 139.466 205.111 139.466Z" fill="#C9493B"/>
<path d="M250.662 201.501H286.44" stroke="#100D14" stroke-width="0.98" stroke-linecap="round" stroke-linejoin="round"/>
<path d="M250.662 195.077H286.408V219.157C286.408 221.68 285.406 224.098 283.623 225.882C281.84 227.665 279.421 228.667 276.899 228.667H260.204C257.682 228.667 255.263 227.665 253.479 225.882C251.696 224.098 250.694 221.68 250.694 219.157L250.662 195.077Z" stroke="#100D14" stroke-width="0.98" stroke-linecap="round" stroke-linejoin="round"/>
<path d="M175.461 161.286C158.005 190.872 144.259 224.198 144.259 224.198L194.227 234.511L196.604 191.189L175.461 161.286Z" fill="#C9493B"/>
<path d="M196.647 191.146L194.259 258.57" stroke="#100D14" stroke-width="0.98" stroke-linecap="round" stroke-linejoin="round"/>
<path d="M277.015 166.558L285.098 125.582" stroke="#100D14" stroke-width="0.98" stroke-linecap="round" stroke-linejoin="round"/>
<path d="M215.497 164.286L205.1 139.466" stroke="#100D14" stroke-width="0.98" stroke-linecap="round" stroke-linejoin="round"/>
<path d="M188.363 196.979L196.14 205.337" stroke="#100D14" stroke-width="0.98" stroke-linecap="round" stroke-linejoin="round"/>
<path d="M400.356 193.27C407.753 194.939 400.568 215.744 373.602 226.311C346.637 236.877 326.455 226.311 326.455 226.311C326.455 226.311 343.023 187.891 400.356 193.27Z" fill="#100D14"/>
<path d="M370.612 182.186C370.612 182.186 388.11 211.909 404.71 234.51C433.239 273.373 379.097 305.823 349.765 261.476C326.519 226.311 323.454 221.556 323.454 221.556L370.612 182.186Z" fill="#E5987D"/>
<path d="M391.66 215.723L326.455 226.289C326.455 226.289 329.361 205.4 374.976 189.413L391.66 215.723Z" fill="#DB785E"/>
<path d="M318.657 138.156C345.728 136.159 351.18 162.332 375.768 177.801L400.356 193.27C400.356 193.27 366.111 196.176 344.439 209.923C325.25 222.085 326.476 226.311 326.476 226.311C326.476 226.311 306.125 194.855 299.775 179.259C293.425 163.663 295.263 139.889 318.657 138.156Z" fill="#C9493B"/>
<path d="M409.876 267.653C417.074 253.133 411.139 235.528 396.62 228.33C382.101 221.132 364.495 227.067 357.297 241.586C350.099 256.106 356.034 273.711 370.554 280.909C385.073 288.107 402.678 282.172 409.876 267.653Z" fill="#E5987D"/>
<path d="M368.108 229.65L279.656 277.6L305.46 313.23L400.346 278.667L368.108 229.65Z" fill="#E5987D"/>
<path d="M303.41 277.251H278.811C273.145 277.251 268.552 281.845 268.552 287.511V289.551C268.552 295.217 273.145 299.811 278.811 299.811H303.41C309.076 299.811 313.67 295.217 313.67 289.551V287.511C313.67 281.845 309.076 277.251 303.41 277.251Z" fill="#E5987D"/>
<path d="M282.879 269.136H281.558C277.882 269.136 274.902 272.117 274.902 275.793V293.28C274.902 296.957 277.882 299.937 281.558 299.937H282.879C286.556 299.937 289.536 296.957 289.536 293.28V275.793C289.536 272.117 286.556 269.136 282.879 269.136Z" fill="#E5987D"/>
<path d="M266.18 253.451L265.036 254.112C261.852 255.95 260.761 260.021 262.599 263.205L271.343 278.349C273.181 281.533 277.252 282.624 280.436 280.786L281.58 280.126C284.764 278.287 285.855 274.216 284.017 271.032L275.273 255.888C273.435 252.704 269.363 251.613 266.18 253.451Z" fill="#E5987D"/>
<path d="M297.503 269.136H296.182C292.506 269.136 289.525 272.117 289.525 275.793V293.28C289.525 296.957 292.506 299.937 296.182 299.937H297.503C301.179 299.937 304.16 296.957 304.16 293.28V275.793C304.16 272.117 301.179 269.136 297.503 269.136Z" fill="#E5987D"/>
<path d="M312.138 269.136H310.817C307.14 269.136 304.16 272.117 304.16 275.793V293.28C304.16 296.957 307.14 299.937 310.817 299.937H312.138C315.814 299.937 318.794 296.957 318.794 293.28V275.793C318.794 272.117 315.814 269.136 312.138 269.136Z" fill="#E5987D"/>
<path d="M288.332 272.455C289.118 273.642 289.537 275.035 289.536 276.459V292.626C289.517 294.562 288.739 296.413 287.37 297.782C286.001 299.152 284.15 299.929 282.214 299.948C280.274 299.943 278.416 299.169 277.046 297.797C275.675 296.425 274.904 294.565 274.902 292.626V276.459C274.907 274.522 275.679 272.665 277.049 271.295C278.419 269.925 280.276 269.153 282.214 269.147V269.147" stroke="#100D14" stroke-width="0.98" stroke-linecap="round" stroke-linejoin="round"/>
<path d="M300.62 270.204C301.698 270.854 302.59 271.771 303.21 272.867C303.83 273.963 304.157 275.2 304.16 276.459V292.626C304.157 294.565 303.386 296.424 302.016 297.797C300.646 299.169 298.787 299.942 296.848 299.948V299.948C294.909 299.942 293.051 299.169 291.68 297.797C290.31 296.424 289.539 294.565 289.536 292.626V276.459C289.542 275.168 289.889 273.902 290.543 272.789C291.196 271.675 292.132 270.754 293.255 270.119" stroke="#100D14" stroke-width="0.98" stroke-linecap="round" stroke-linejoin="round"/>
<path d="M318.794 280.073V292.626C318.775 294.56 317.999 296.41 316.632 297.779C315.265 299.148 313.417 299.926 311.482 299.948C309.546 299.929 307.695 299.152 306.326 297.782C304.957 296.413 304.179 294.562 304.16 292.626V276.459C304.165 274.52 304.939 272.662 306.311 271.292C307.684 269.921 309.543 269.15 311.482 269.147H325.684" stroke="#100D14" stroke-width="0.98" stroke-linecap="round" stroke-linejoin="round"/>
<path d="M265.614 253.763C256.928 259.447 256.748 280.253 256.569 288.537C256.389 296.821 270.675 299.103 272.26 286.772C273.845 274.441 274.901 267.098 274.901 267.098L265.614 253.763Z" fill="#E5987D"/>
<path d="M265.614 253.763C256.928 259.447 256.748 280.253 256.569 288.537C256.389 296.821 270.675 299.103 272.26 286.772C273.845 274.441 274.901 267.098 274.901 267.098" stroke="#100D14" stroke-width="0.98" stroke-linecap="round" stroke-linejoin="round"/>
<path d="M318.794 283.951C318.794 283.951 319.766 291.347 325.684 292.013" stroke="#100D14" stroke-width="0.98" stroke-linecap="round" stroke-linejoin="round"/>
<path d="M362.835 232.513L288.532 272.792" stroke="#100D14" stroke-width="0.98" stroke-linecap="round" stroke-linejoin="round"/>
<path d="M339.093 245.383L302.216 187.627" stroke="#100D14" stroke-width="0.98" stroke-linecap="round" stroke-linejoin="round"/>
<path d="M345.58 232.513L339.092 245.383" stroke="#100D14" stroke-width="0.98" stroke-linecap="round" stroke-linejoin="round"/>
<path d="M364.177 168.756C368.964 173.321 373.687 177.135 378.157 179.026" stroke="#EFF6FF" stroke-width="0.98" stroke-linecap="round" stroke-linejoin="round"/>
<path d="M281.125 147.433C307.214 138.261 323.391 133.063 335.996 141.389C342.03 145.372 348.824 152.811 355.756 160.134" stroke="#EFF6FF" stroke-width="0.98" stroke-linecap="round" stroke-linejoin="round"/>
<path d="M136.588 87.9438C130.026 109.637 89.4404 234.922 89.4404 234.922L136.588 249.197L176.159 137.976L197.83 133.305C205.586 131.636 208.143 116.917 193.519 119.294L178.885 121.672L184.707 98.4257L136.588 87.9438Z" fill="#E5987D"/>
<path d="M108.291 176.554L154.128 199.905L144.249 235.303L97.3972 210.292L108.291 176.554Z" fill="#DB785E"/>
<path d="M204.836 74.1652C213.564 68.079 221.89 78.0959 212.645 85.112C203.399 92.1281 180.945 109.594 180.945 109.594L172.292 96.7667L204.836 74.1652Z" fill="#E5987D"/>
<path d="M147.989 84.7319C148.973 85.1793 149.857 85.8201 150.588 86.6161C151.32 87.4121 151.884 88.3471 152.246 89.3654C152.609 90.3837 152.763 91.4645 152.7 92.5436C152.637 93.6228 152.357 94.6781 151.877 95.6469C149.764 99.5459 144.671 100.983 140.434 98.8169C139.45 98.3694 138.566 97.7286 137.834 96.9326C137.103 96.1366 136.539 95.2017 136.176 94.1834C135.814 93.1651 135.659 92.0842 135.723 91.0051C135.786 89.926 136.066 88.8706 136.545 87.9018C137.676 85.9998 139.498 84.6081 141.63 84.0174C143.763 83.4268 146.041 83.6827 147.989 84.7319Z" fill="#E5987D"/>
<path d="M158.861 88.0498C159.854 88.494 160.746 89.1343 161.484 89.9322C162.223 90.73 162.792 91.6689 163.158 92.6925C163.524 93.7161 163.68 94.8032 163.615 95.8883C163.55 96.9735 163.267 98.0344 162.782 99.0072C161.653 100.911 159.831 102.305 157.698 102.895C155.565 103.486 153.286 103.229 151.338 102.177C150.354 101.73 149.47 101.089 148.739 100.293C148.007 99.4969 147.444 98.5619 147.081 97.5436C146.718 96.5253 146.564 95.4445 146.627 94.3653C146.691 93.2862 146.97 92.2308 147.45 91.262C148.569 89.357 150.382 87.9589 152.509 87.3602C154.636 86.7615 156.913 87.0086 158.861 88.0498V88.0498Z" fill="#E5987D"/>
<path d="M157.832 87.6591L146.61 84.1768L141.872 99.4454L153.094 102.928L157.832 87.6591Z" fill="#E5987D"/>
<path d="M162.465 85.292C163.396 85.7156 164.233 86.3223 164.925 87.076C165.618 87.8297 166.151 88.7151 166.494 89.6792C166.837 90.6434 166.983 91.6668 166.922 92.6884C166.862 93.7101 166.596 94.709 166.142 95.6259C165.073 97.4274 163.348 98.7451 161.329 99.3025C159.309 99.86 157.153 99.6141 155.311 98.6162C154.38 98.1937 153.543 97.588 152.851 96.8353C152.159 96.0825 151.625 95.1981 151.282 94.2348C150.939 93.2714 150.793 92.2489 150.854 91.228C150.914 90.2072 151.18 89.2089 151.634 88.2928C152.701 86.4895 154.425 85.1697 156.445 84.6102C158.464 84.0507 160.621 84.295 162.465 85.292V85.292Z" fill="#E5987D"/>
<path d="M172.714 88.4723C173.646 88.8948 174.482 89.5005 175.174 90.2533C175.867 91.006 176.4 91.8904 176.743 92.8538C177.087 93.8171 177.232 94.8397 177.172 95.8605C177.111 96.8814 176.846 97.8796 176.391 98.7957C175.331 100.606 173.61 101.935 171.59 102.503C169.57 103.07 167.409 102.832 165.561 101.839C164.629 101.415 163.792 100.808 163.1 100.055C162.408 99.3011 161.874 98.4158 161.531 97.4516C161.188 96.4874 161.042 95.464 161.103 94.4424C161.164 93.4208 161.429 92.4218 161.884 91.5049C162.946 89.6962 164.668 88.3696 166.687 87.8041C168.707 87.2385 170.867 87.4781 172.714 88.4723V88.4723Z" fill="#E5987D"/>
<path d="M171.736 88.0581L161.12 84.7637L156.635 99.2149L167.252 102.509L171.736 88.0581Z" fill="#E5987D"/>
<path d="M173.992 101.501C177.06 106.346 179.882 111.344 182.446 116.473C185.869 123.553 198.644 118.09 193.773 105.506C191.841 100.475 188.973 95.857 185.32 91.896L173.95 101.501" fill="#E5987D"/>
<path d="M187.137 93.9987C187.878 95.2983 188.218 96.7885 188.112 98.2809C188.007 99.7733 187.461 101.201 186.544 102.383C185.627 103.566 184.38 104.45 182.961 104.923C181.542 105.397 180.014 105.44 178.571 105.045C177.128 104.651 175.834 103.837 174.853 102.707C173.872 101.578 173.248 100.183 173.06 98.6983C172.872 97.214 173.128 95.7073 173.796 94.3686C174.464 93.0299 175.515 91.9194 176.814 91.1774C177.677 90.6846 178.628 90.3666 179.614 90.2417C180.6 90.1167 181.601 90.1873 182.56 90.4493C183.519 90.7112 184.416 91.1596 185.202 91.7686C185.987 92.3776 186.645 93.1354 187.137 93.9987Z" fill="#E5987D"/>
<path d="M173.993 101.5C177.06 106.346 179.882 111.343 182.446 116.473C185.869 123.553 198.644 118.09 193.773 105.505C191.841 100.475 188.973 95.8566 185.32 91.8956C182.964 89.3386 177.723 89.6239 175.63 91.9802" stroke="#100D14" stroke-width="0.98" stroke-linecap="round" stroke-linejoin="round"/>
<path d="M162.422 95.552C162.683 101.15 162.662 106.757 162.359 112.353C161.831 120.013 175.334 121.566 177.3 108.517C178.102 103.312 177.912 98.0024 176.74 92.8682L162.422 95.5203" fill="#E5987D"/>
<path d="M177.226 95.5522C177.226 97.0151 176.792 98.4451 175.98 99.6615C175.167 100.878 174.012 101.826 172.66 102.386C171.309 102.945 169.821 103.092 168.387 102.807C166.952 102.521 165.634 101.817 164.599 100.782C163.565 99.7479 162.861 98.43 162.575 96.9952C162.29 95.5604 162.436 94.0733 162.996 92.7217C163.556 91.3702 164.504 90.215 165.72 89.4023C166.937 88.5895 168.367 88.1558 169.83 88.1558C171.791 88.1558 173.673 88.935 175.06 90.3221C176.447 91.7092 177.226 93.5906 177.226 95.5522V95.5522Z" fill="#E5987D"/>
<path d="M174.405 89.7617C177.437 93.5973 178.177 100.265 177.416 107.418C176.655 114.572 173.559 118.513 167.653 118.259C161.746 118.006 161.397 111.042 161.397 111.042" stroke="#100D14" stroke-width="0.98" stroke-linecap="round" stroke-linejoin="round"/>
<path d="M148.855 95.7949C149.117 101.403 149.095 107.021 148.792 112.627C148.263 120.298 161.757 121.852 163.733 108.802C164.535 103.597 164.341 98.2864 163.162 93.1533L148.855 95.7949" fill="#E5987D"/>
<path d="M163.659 95.7949C163.659 97.2578 163.225 98.6878 162.412 99.9042C161.6 101.121 160.444 102.069 159.093 102.628C157.741 103.188 156.254 103.335 154.819 103.049C153.385 102.764 152.067 102.059 151.032 101.025C149.998 99.9906 149.293 98.6727 149.008 97.2379C148.723 95.8031 148.869 94.3159 149.429 92.9644C149.989 91.6129 150.937 90.4577 152.153 89.645C153.37 88.8322 154.8 88.3984 156.262 88.3984C158.224 88.3984 160.105 89.1777 161.493 90.5648C162.88 91.9519 163.659 93.8332 163.659 95.7949V95.7949Z" fill="#E5987D"/>
<path d="M149.859 85.1118C149.859 85.1118 156.358 87.3836 160.838 89.4335C165.318 91.4833 164.198 103.423 163.839 108.125C163.479 112.827 160.278 118.237 155.09 118.544C149.901 118.85 148.433 115.923 148.982 108.886C149.316 104.545 149.277 100.182 148.866 95.8473" stroke="#100D14" stroke-width="0.98" stroke-linecap="round" stroke-linejoin="round"/>
<path d="M141.881 99.4189L149.056 101.659" stroke="#100D14" stroke-width="0.98" stroke-linecap="round" stroke-linejoin="round"/>
<path d="M153.684 134.13C154.423 131.674 155.785 129.45 157.636 127.675C159.487 125.899 161.766 124.632 164.251 123.997" stroke="#100D14" stroke-width="0.98" stroke-linecap="round" stroke-linejoin="round"/>
<path d="M170.865 138.8L196.605 133.602" stroke="#100D14" stroke-width="0.98" stroke-linecap="round" stroke-linejoin="round"/>
<path d="M484 14.9303V81.7838C484 85.7436 482.427 89.5412 479.627 92.3411C476.827 95.1411 473.029 96.7141 469.07 96.7141H375.61L336.673 108.337C336.095 108.509 335.477 108.497 334.906 108.304C334.335 108.11 333.838 107.744 333.483 107.256C333.128 106.768 332.934 106.183 332.926 105.579C332.918 104.976 333.098 104.386 333.439 103.889L348.687 81.8261V14.9303C348.684 14.116 348.751 13.3029 348.888 12.5C349.459 9.009 351.253 5.83495 353.95 3.54506C356.646 1.25517 360.069 -0.00135976 363.606 1.10423e-06H469.08C472.618 0.000389982 476.041 1.25731 478.739 3.54667C481.437 5.83603 483.234 9.00904 483.81 12.5C483.937 13.3038 484.001 14.1165 484 14.9303V14.9303Z" fill="#EFF6FF"/>
<path d="M402.079 50.1377V35.1018C402.079 34.5801 402.216 34.0677 402.477 33.6161C402.739 33.1645 403.114 32.7897 403.566 32.5294C404.018 32.2691 404.531 32.1325 405.053 32.1333C405.574 32.1341 406.086 32.2724 406.538 32.5342L419.545 40.0469L432.563 47.5595C433.015 47.8199 433.39 48.1949 433.651 48.6465C433.912 49.0982 434.05 49.6107 434.05 50.1325C434.05 50.6542 433.912 51.1667 433.651 51.6184C433.39 52.0701 433.015 52.445 432.563 52.7054L419.545 60.2286L406.527 67.7413C406.075 68.0002 405.562 68.1357 405.041 68.1345C404.519 68.1332 404.008 67.9953 403.556 67.7343C403.105 67.4734 402.73 67.0986 402.469 66.6474C402.208 66.1963 402.07 65.6845 402.068 65.1631L402.079 50.1377Z" fill="#95BAEA"/>
<path d="M483.81 12.5H348.887C349.459 9.009 351.253 5.83495 353.95 3.54506C356.646 1.25517 360.069 -0.00135976 363.606 1.10423e-06H469.08C472.618 0.000389982 476.041 1.25731 478.739 3.54667C481.437 5.83603 483.234 9.00904 483.81 12.5V12.5Z" fill="#293E77"/>
<path d="M367.432 6.25493C367.432 6.53288 367.349 6.80459 367.195 7.0357C367.04 7.2668 366.821 7.44692 366.564 7.55329C366.307 7.65965 366.025 7.68749 365.752 7.63327C365.479 7.57904 365.229 7.44519 365.032 7.24865C364.836 7.05211 364.702 6.80171 364.648 6.5291C364.594 6.2565 364.621 5.97393 364.728 5.71714C364.834 5.46035 365.014 5.24087 365.245 5.08645C365.477 4.93203 365.748 4.84961 366.026 4.84961C366.398 4.85237 366.754 5.00132 367.017 5.26428C367.28 5.52723 367.429 5.88307 367.432 6.25493V6.25493Z" fill="#C9493B"/>
<path d="M373.687 7.65001C374.463 7.65001 375.092 7.02083 375.092 6.24468C375.092 5.46854 374.463 4.83936 373.687 4.83936C372.911 4.83936 372.281 5.46854 372.281 6.24468C372.281 7.02083 372.911 7.65001 373.687 7.65001Z" fill="#E6C75B"/>
<path d="M381.358 7.65001C382.134 7.65001 382.763 7.02083 382.763 6.24468C382.763 5.46854 382.134 4.83936 381.358 4.83936C380.582 4.83936 379.953 5.46854 379.953 6.24468C379.953 7.02083 380.582 7.65001 381.358 7.65001Z" fill="#5E9F63"/>
<path d="M65.1378 208.337H224.468C225.592 208.332 226.693 208.658 227.632 209.274C228.572 209.891 229.309 210.77 229.752 211.803L271.531 309.563C271.904 310.435 272.055 311.386 271.969 312.33C271.884 313.275 271.565 314.183 271.04 314.973C270.516 315.764 269.804 316.411 268.967 316.858C268.131 317.304 267.196 317.535 266.248 317.531H105.935C104.805 317.533 103.699 317.2 102.759 316.574C101.818 315.947 101.085 315.056 100.651 314.012L59.8652 216.252C59.5035 215.383 59.3617 214.439 59.4524 213.503C59.5431 212.567 59.8634 211.667 60.3849 210.884C60.9064 210.102 61.6131 209.46 62.4422 209.015C63.2712 208.571 64.1972 208.338 65.1378 208.337V208.337Z" fill="#EFF6FF"/>
<path d="M374.976 299.938H258.778V317.52H374.976V299.938Z" fill="#EFF6FF"/>
<path d="M267.389 299.938H94.7871L102.131 317.52H274.902L267.389 299.938Z" fill="#95BAEA"/>
<path d="M168.921 256.055C170.653 262.247 167.04 267.276 160.848 267.276C154.656 267.276 148.221 262.247 146.478 256.055C144.734 249.863 148.358 244.833 154.55 244.833C160.742 244.833 167.177 249.853 168.921 256.055Z" fill="#4663D8"/>
<path opacity="0.15" d="M471.045 341.896H115.687C114.508 341.896 113.553 342.852 113.553 344.031V344.443C113.553 345.622 114.508 346.577 115.687 346.577H471.045C472.224 346.577 473.18 345.622 473.18 344.443V344.031C473.18 342.852 472.224 341.896 471.045 341.896Z" fill="black"/>
<path d="M471.056 341.896H334.147C332.968 341.896 332.013 342.852 332.013 344.031V344.443C332.013 345.622 332.968 346.577 334.147 346.577H471.056C472.235 346.577 473.19 345.622 473.19 344.443V344.031C473.19 342.852 472.235 341.896 471.056 341.896Z" fill="#293E77"/>
</svg>
