<svg width="45" height="45" viewBox="0 0 45 45" fill="none" xmlns="http://www.w3.org/2000/svg">
<path d="M22.4999 20.2268L31.1551 11.5714C31.7836 10.9429 32.8 10.9429 33.4284 11.5713L22.4999 20.2268ZM22.4999 20.2268L13.8449 11.5714L13.8449 11.5713C13.2162 10.9429 12.2001 10.9429 11.5716 11.5713L22.4999 20.2268ZM24.7735 22.5002L33.4284 31.1556C33.4284 31.1556 33.4284 31.1556 33.4285 31.1556C34.0572 31.7841 34.0572 32.8005 33.4285 33.429L24.7735 22.5002ZM24.7735 22.5002L33.4284 13.8448C33.4284 13.8448 33.4284 13.8447 33.4285 13.8447C34.0572 13.2163 34.0572 12.1998 33.4285 11.5714L24.7735 22.5002ZM22.4999 24.7735L31.1551 33.429C31.4686 33.7425 31.8804 33.9 32.2918 33.9C32.7032 33.9 33.115 33.7425 33.4284 33.429L22.4999 24.7735ZM22.4999 24.7735L13.8449 33.429L13.7388 33.3229L13.8449 33.429C13.5314 33.7425 13.1196 33.9 12.7082 33.9C12.2969 33.9 11.8848 33.7425 11.5716 33.429C10.9428 32.8005 10.9428 31.7841 11.5716 31.1556L20.2265 22.5002L11.5716 13.8448C11.5716 13.8448 11.5716 13.8447 11.5715 13.8447C10.9428 13.2163 10.9428 12.1998 11.5715 11.5714L22.4999 24.7735Z" fill="white" stroke="white" stroke-width="0.3"/>
</svg>
