<svg width="45" height="45" viewBox="0 0 45 45" fill="none" xmlns="http://www.w3.org/2000/svg">
<path d="M36.2901 21.4453L12.7616 21.4453L18.2884 15.6569C18.9439 14.9706 18.9439 13.8575 18.2884 13.171C17.6331 12.4847 16.5703 12.4847 15.9148 13.171L7.52268 21.9601C6.8672 22.6465 6.8672 23.7595 7.52268 24.446L15.9148 33.2351C16.2427 33.5783 16.6721 33.75 17.1017 33.75C17.5312 33.75 17.9608 33.5783 18.2884 33.2351C18.9439 32.5487 18.9439 31.4357 18.2884 30.7492L12.7616 24.9609L36.2901 24.9609C37.2171 24.9609 37.9686 24.1739 37.9686 23.2031C37.9686 22.2323 37.2171 21.4453 36.2901 21.4453Z" fill="white"/>
</svg>
