<svg width="45" height="45" viewBox="0 0 45 45" fill="none" xmlns="http://www.w3.org/2000/svg">
<path fill-rule="evenodd" clip-rule="evenodd" d="M33.8198 12.6066C33.0387 11.8256 31.7724 11.8256 30.9914 12.6066L23.2132 20.3848L15.435 12.6066C14.654 11.8256 13.3876 11.8256 12.6066 12.6066C11.8255 13.3876 11.8255 14.654 12.6066 15.435L20.3848 23.2132L12.6066 30.9914C11.8255 31.7724 11.8255 33.0388 12.6066 33.8198C13.3876 34.6009 14.654 34.6009 15.435 33.8198L23.2132 26.0416L30.9914 33.8198C31.7724 34.6009 33.0387 34.6009 33.8198 33.8198C34.6008 33.0388 34.6008 31.7724 33.8198 30.9914L26.0416 23.2132L33.8198 15.435C34.6008 14.654 34.6008 13.3877 33.8198 12.6066Z" fill="white"/>
</svg>
